<?xml version="1.0" standalone="no"?>
<!DOCTYPE svg PUBLIC "-//W3C//DTD SVG 20010904//EN"
 "http://www.w3.org/TR/2001/REC-SVG-20010904/DTD/svg10.dtd">
<svg version="1.0" xmlns="http://www.w3.org/2000/svg"
 width="512.000000pt" height="512.000000pt" viewBox="0 0 512.000000 512.000000"
 preserveAspectRatio="xMidYMid meet">
<metadata>
Created by potrace 1.14, written by Peter Selinger 2001-2017
</metadata>
<g transform="translate(0.000000,512.000000) scale(0.100000,-0.100000)"
fill="#000000" stroke="none">
<path d="M161 5113 c19 -5 45 -50 35 -60 -4 -4 -11 -1 -16 7 -7 11 -10 6 -10
-17 0 -38 19 -44 38 -13 7 11 21 20 32 20 11 0 20 4 20 9 0 5 12 11 28 13 15
2 28 9 28 16 1 6 2 14 3 17 2 8 51 -46 51 -56 0 -6 -9 -8 -20 -4 -14 5 -20 2
-20 -9 0 -16 10 -20 43 -17 9 1 17 -4 17 -11 0 -7 18 -28 40 -46 33 -28 40
-30 41 -15 0 14 3 12 11 -7 6 -14 17 -38 25 -54 16 -36 16 -46 0 -46 -7 0 -29
-9 -49 -20 l-37 -20 -3 58 -3 57 -37 -2 c-31 -1 -37 2 -40 20 -2 13 -9 21 -18
19 -8 -2 -25 -6 -37 -8 -12 -2 -34 -9 -49 -14 -22 -9 -29 -7 -47 17 -25 31
-41 58 -56 90 -5 11 -15 24 -20 28 -17 10 -13 -21 4 -35 12 -10 13 -16 4 -26
-13 -16 -53 -19 -44 -4 4 6 -10 10 -35 10 -39 0 -41 -1 -38 -27 2 -20 9 -29
26 -31 30 -5 28 -22 -3 -22 -24 0 -25 -2 -25 -64 0 -58 2 -64 19 -59 16 4 19
1 14 -19 -3 -12 -12 -32 -20 -43 -10 -15 -13 -79 -13 -282 l0 -262 27 -15 c16
-8 37 -31 48 -53 10 -21 26 -45 35 -54 32 -35 45 -55 57 -90 16 -45 16 -49 -2
-49 -8 0 -15 -4 -15 -10 0 -5 12 -10 27 -10 23 0 25 -13 2 -16 -20 -3 -21 -4
-11 -17 16 -19 -40 -51 -74 -43 -14 4 -24 2 -24 -4 0 -5 -9 -10 -20 -10 -11 0
-20 -4 -20 -10 0 -17 -18 -11 -23 8 -3 9 -5 -33 -6 -93 l-1 -110 57 -12 c32
-6 66 -14 76 -18 13 -6 17 -2 17 15 0 44 24 12 41 -52 13 -54 14 -65 3 -61 -8
3 -14 -1 -14 -11 0 -9 7 -19 15 -22 8 -4 12 -10 9 -16 -3 -5 -12 -7 -20 -4
-10 4 -11 0 -4 -19 5 -14 5 -27 1 -30 -11 -6 -3 -42 17 -72 15 -24 4 -31 -16
-11 -10 10 -15 10 -22 -2 -14 -22 -12 -34 3 -22 11 9 13 1 14 -38 0 -37 -3
-50 -14 -50 -7 0 -13 -6 -12 -12 3 -25 -1 -38 -12 -38 -6 0 -24 -9 -40 -21
-16 -11 -33 -17 -39 -14 -5 3 -10 1 -10 -4 0 -6 -10 -10 -22 -8 -17 1 -24 -4
-26 -20 -3 -18 2 -23 17 -23 37 0 97 -65 122 -133 13 -34 24 -65 24 -69 0 -3
3 -10 7 -14 13 -13 9 -103 -7 -139 -8 -20 -25 -39 -40 -45 -14 -5 -25 -14 -25
-20 0 -5 -13 -10 -29 -10 -16 0 -34 -7 -41 -15 -7 -8 -16 -12 -21 -9 -5 3 -9
-47 -9 -114 l0 -120 34 16 c19 8 39 26 45 39 14 30 26 29 58 -4 27 -26 27 -26
6 -34 -12 -4 -24 -12 -27 -17 -3 -5 -19 -8 -36 -6 -17 2 -42 -3 -56 -12 -22
-15 -24 -23 -24 -87 l0 -70 79 6 c75 5 80 4 85 -16 4 -16 8 -19 16 -11 13 13
60 6 60 -8 0 -7 -22 -8 -62 -4 -34 4 -65 8 -68 8 -3 0 -29 0 -57 -1 -52 -1
-53 -2 -53 -31 0 -31 16 -41 26 -16 11 28 184 5 184 -25 0 -12 -23 -24 -43
-21 -22 4 -22 -7 0 -24 31 -22 4 -29 -34 -9 -20 11 -46 20 -57 21 -12 1 -33 4
-49 9 l-27 7 0 -89 0 -90 43 -13 c26 -9 36 -15 24 -18 -9 -2 -17 -7 -17 -11 0
-9 53 -28 105 -37 41 -7 95 -30 95 -40 0 -3 -24 -3 -52 0 l-53 6 119 -59 c66
-33 133 -72 150 -88 l31 -28 -29 -3 c-16 -2 -39 1 -50 6 -79 37 -256 84 -271
72 -6 -5 -17 -5 -24 0 -20 12 -43 0 -37 -17 4 -9 -1 -17 -14 -20 -19 -5 -20
-13 -19 -172 1 -91 4 -155 8 -142 9 34 27 37 35 5 9 -34 46 -84 63 -84 8 0 27
-16 44 -35 17 -19 34 -35 38 -35 4 0 13 15 20 32 l14 33 7 -37 c8 -46 29 -73
44 -58 17 17 26 11 26 -18 0 -15 9 -35 20 -45 12 -10 20 -29 20 -46 0 -17 5
-33 10 -36 6 -3 11 -21 11 -38 1 -19 3 -24 6 -14 4 16 7 15 19 -8 10 -19 11
-32 4 -40 -11 -13 21 -51 33 -38 4 3 7 -5 7 -19 0 -17 7 -27 19 -31 14 -3 18
-11 15 -24 -4 -14 5 -27 30 -46 19 -15 39 -27 45 -27 30 0 148 -78 193 -128
37 -41 46 -41 60 -2 11 30 68 100 82 100 8 0 16 10 20 23 7 29 68 91 125 128
51 33 66 36 57 13 -10 -25 40 -57 91 -60 25 -1 50 -7 56 -13 6 -6 45 -11 91
-11 91 0 100 -4 115 -43 8 -19 17 -27 36 -27 18 0 26 -7 31 -25 6 -23 20 -30
53 -25 8 1 30 -16 49 -37 32 -35 36 -44 39 -109 4 -78 -4 -103 -61 -176 -33
-44 -46 -41 -46 9 l0 36 -27 -55 c-30 -58 -119 -173 -142 -183 -19 -8 -26 2
-13 18 9 10 4 12 -24 9 -26 -3 -33 -8 -30 -21 18 -61 18 -69 -11 -101 -27 -30
-32 -32 -53 -20 -19 10 -25 10 -34 -2 -6 -8 -16 -13 -23 -11 -6 2 -14 -1 -18
-6 -4 -8 23 -11 83 -11 98 0 106 4 165 95 15 21 53 67 84 100 142 149 170 191
165 245 -2 18 6 34 25 52 15 15 34 34 41 42 7 9 25 16 41 16 24 0 29 5 40 48
6 26 11 81 10 121 -1 42 3 77 9 83 17 17 27 -18 12 -37 -10 -11 -10 -22 -3
-38 7 -15 7 -43 1 -82 -7 -47 -6 -61 6 -73 13 -14 14 -13 10 5 -3 12 1 32 10
45 9 13 12 29 7 36 -10 16 -2 62 11 62 5 0 7 -4 4 -8 -3 -5 0 -25 6 -46 9 -29
16 -36 32 -34 45 6 11 108 -36 108 -14 0 -18 8 -18 41 0 34 6 46 31 68 81 68
113 104 114 124 0 13 9 26 23 32 21 9 26 21 23 56 -3 33 58 144 79 144 11 0
14 -10 12 -38 -3 -34 1 -43 36 -75 22 -21 46 -36 52 -34 15 5 58 -43 66 -73 8
-34 38 -32 64 5 21 30 21 30 1 30 -24 0 -47 35 -30 46 6 3 8 15 6 26 -5 18 -2
19 50 12 51 -6 56 -5 50 10 -4 10 -7 35 -7 57 0 40 -22 55 -34 24 -3 -10 -19
-15 -46 -15 -44 0 -45 -1 -27 -31 10 -17 9 -22 -5 -33 -11 -8 -15 -20 -11 -34
4 -16 1 -22 -10 -22 -9 0 -19 5 -22 10 -4 6 -11 7 -17 4 -7 -5 -8 -2 -3 6 4 7
7 48 6 90 -2 64 1 79 14 84 9 3 23 -1 31 -9 23 -22 94 -18 94 6 0 11 -70 41
-84 36 -10 -3 -36 16 -36 26 0 9 34 18 39 10 3 -4 23 -17 44 -27 21 -11 55
-37 75 -58 23 -24 43 -36 53 -33 19 6 49 -19 49 -41 0 -24 -19 -54 -34 -54
-38 0 -17 -73 23 -78 33 -5 77 16 105 49 19 22 37 30 88 39 118 19 138 8 63
-35 -30 -16 -46 -20 -63 -14 -20 8 -23 6 -17 -10 4 -13 0 -23 -12 -30 -10 -6
-12 -11 -5 -11 6 0 12 -5 12 -11 0 -7 -20 -8 -57 -5 -32 4 -50 3 -40 -2 16 -7
16 -8 -1 -23 -10 -8 -24 -13 -31 -11 -10 3 -12 -2 -9 -20 4 -21 1 -24 -23 -20
-29 4 -79 -23 -79 -43 0 -7 -9 -15 -20 -18 -11 -3 -20 -10 -20 -16 0 -15 70
-26 90 -13 22 13 47 0 28 -15 -7 -6 -20 -13 -28 -16 -11 -4 -9 -6 5 -6 22 0
65 31 65 48 0 6 5 11 10 11 16 0 12 -27 -10 -62 -22 -36 -27 -88 -8 -88 9 0 9
-3 0 -12 -7 -7 -12 -23 -12 -38 0 -14 -5 -42 -11 -63 -8 -30 -14 -37 -29 -32
-28 9 -36 -16 -12 -36 12 -9 22 -24 22 -33 0 -9 8 -16 20 -16 21 0 27 15 10
25 -19 12 1 25 39 25 25 0 44 -7 56 -20 10 -11 24 -20 32 -20 7 0 13 -5 13
-11 0 -7 10 -9 25 -7 14 3 30 0 35 -7 6 -7 21 -16 33 -19 17 -4 23 -14 25 -42
1 -21 7 -43 12 -49 5 -7 7 -15 3 -18 -3 -4 2 -9 11 -13 9 -3 16 -12 16 -20 0
-12 -4 -12 -22 -2 -46 26 -69 46 -58 53 14 8 3 25 -16 25 -8 0 -13 -4 -10 -9
13 -21 -174 -22 -199 -1 -7 6 -23 37 -35 70 -12 33 -26 60 -30 60 -14 0 -16
-94 -3 -130 7 -19 12 -51 13 -72 0 -28 7 -42 30 -62 27 -22 30 -30 24 -60 -3
-20 -12 -40 -20 -47 -11 -9 -14 -7 -14 15 0 14 -4 26 -10 26 -5 0 -10 5 -10
10 0 6 7 10 15 10 25 0 17 20 -16 38 -16 9 -44 29 -61 44 l-31 27 27 10 c14 6
26 12 26 15 0 2 -13 29 -30 60 -17 33 -27 64 -23 74 3 9 3 14 -2 10 -10 -9
-35 10 -35 26 0 6 4 5 9 -3 6 -10 10 -10 16 -1 4 6 2 17 -4 23 -6 6 -11 19
-11 30 0 14 5 17 20 12 11 -4 20 -2 20 4 0 6 -9 11 -20 11 -11 0 -20 6 -20 13
0 8 -9 22 -20 32 -14 13 -17 22 -10 29 5 5 10 20 10 32 0 15 7 24 20 26 28 4
29 18 5 34 -17 11 -27 9 -70 -11 -55 -27 -76 -30 -91 -15 -11 11 -74 -38 -74
-58 0 -6 19 -13 43 -15 34 -3 31 -4 -19 -5 -51 -2 -67 -7 -102 -34 -52 -40
-54 -58 -6 -58 21 0 33 -4 29 -10 -3 -5 -24 -10 -46 -10 -21 0 -39 -5 -39 -11
0 -5 -15 -16 -33 -24 -19 -8 -39 -20 -45 -28 -10 -12 -7 -16 19 -21 17 -3 40
-6 50 -6 29 0 142 -56 162 -79 22 -27 21 -31 -3 -31 -11 0 -20 7 -20 15 0 17
-16 20 -25 5 -8 -13 -25 -13 -25 0 0 6 7 10 15 10 24 0 17 14 -12 26 -105 41
-148 43 -216 11 l-47 -23 53 -17 c30 -9 61 -17 69 -17 8 0 28 -10 43 -21 21
-17 29 -19 35 -9 9 14 40 7 40 -10 0 -5 -3 -9 -7 -8 -13 2 -43 -14 -43 -23 0
-5 9 -17 20 -26 21 -18 27 -43 10 -43 -5 0 -10 7 -10 15 0 18 -16 20 -23 3 -3
-8 -6 -5 -6 5 -1 10 -7 17 -14 14 -7 -2 -11 -18 -9 -37 2 -32 2 -33 -34 -27
-32 5 -34 4 -22 -11 7 -9 17 -20 22 -24 6 -4 -3 -10 -20 -13 -61 -14 -115 -47
-127 -77 -7 -21 -39 -23 -67 -6 -16 10 -23 9 -41 -7 -16 -15 -23 -16 -26 -7
-3 6 -9 9 -15 6 -5 -3 -25 -6 -44 -6 -19 0 -34 -4 -34 -9 0 -13 274 -11 287 2
8 8 13 8 17 0 5 -8 163 -11 524 -11 l517 0 33 37 33 38 -3 -35 -3 -35 53 -3
c34 -2 60 2 70 10 12 10 14 10 8 1 -14 -24 15 -13 38 13 22 26 23 26 55 9 20
-10 43 -14 57 -11 17 5 26 2 30 -9 5 -13 46 -15 299 -15 l293 0 15 47 c10 31
12 51 6 59 -6 8 -5 17 5 26 15 16 18 89 4 99 -11 7 2 40 13 33 12 -7 11 -2 -6
33 -12 23 -13 37 -5 58 14 36 13 37 -10 25 -11 -5 -29 -15 -40 -20 -13 -7 -20
-7 -20 0 0 5 4 10 9 10 10 0 24 30 17 37 -8 9 -53 -43 -49 -57 2 -8 -2 -5 -8
8 -13 24 -24 28 -34 12 -3 -5 -1 -10 4 -10 6 0 10 -11 9 -24 -2 -16 -7 -22
-17 -18 -9 3 -12 1 -7 -6 5 -8 -1 -12 -18 -12 -14 0 -26 -4 -26 -10 0 -5 5
-10 12 -10 6 0 9 -3 5 -6 -3 -3 -16 1 -29 10 -30 22 -48 20 -48 -4 0 -24 -15
-27 -24 -4 -3 8 -10 12 -16 9 -5 -3 -10 -1 -10 4 0 14 -33 14 -46 1 -8 -8 -15
-6 -24 5 -7 8 -16 15 -21 15 -13 0 2 -64 18 -73 7 -4 13 -16 13 -25 0 -10 5
-23 12 -30 7 -7 8 -12 2 -12 -5 0 -15 9 -22 20 -7 11 -18 17 -27 14 -8 -4 -15
-2 -15 4 0 6 5 12 12 14 9 3 9 6 0 12 -7 4 -12 2 -12 -5 0 -9 -3 -9 -14 0 -10
8 -16 9 -21 1 -3 -5 -1 -10 4 -10 6 0 11 -7 11 -15 0 -8 -9 -15 -20 -15 -16 0
-19 5 -14 29 4 20 2 30 -10 34 -18 7 -23 -18 -5 -29 21 -12 -19 -26 -41 -14
-16 9 -22 8 -26 -5 -4 -8 -18 -15 -33 -15 l-26 1 24 20 c13 11 21 23 17 26 -4
4 -10 3 -14 -3 -7 -11 -57 -12 -67 -2 -4 3 5 14 18 24 13 11 22 24 20 31 -2 6
0 14 6 17 6 4 8 13 5 20 -4 11 15 13 91 12 66 -2 99 2 106 10 6 7 24 16 40 19
16 4 31 11 34 16 8 12 -38 12 -50 0 -6 -6 -17 -5 -28 4 -16 12 -14 14 22 20
23 4 41 10 41 14 0 5 11 20 25 35 18 20 31 25 46 21 11 -4 26 -1 34 5 7 6 25
15 40 18 l26 7 -23 25 c-13 13 -23 29 -23 35 0 5 -14 9 -30 9 -45 -3 -45 -3
-45 -19 0 -17 16 -20 25 -5 11 18 35 11 44 -13 11 -29 4 -35 -13 -12 -13 18
-15 18 -39 2 -22 -14 -25 -14 -21 -2 4 8 1 15 -5 15 -6 0 -11 9 -11 20 0 20
-14 27 -24 11 -3 -5 1 -14 9 -21 20 -16 19 -30 -1 -30 -11 0 -14 -5 -10 -16 7
-19 -10 -44 -30 -44 -8 0 -19 11 -24 25 -5 14 -16 25 -25 25 -20 0 -19 -10 2
-25 14 -11 12 -13 -15 -17 -20 -3 -37 1 -43 9 -6 7 -21 13 -32 13 -20 0 -20
-1 3 -16 32 -22 51 -45 44 -55 -9 -15 -24 -10 -18 6 4 8 1 15 -5 15 -6 0 -11
-4 -11 -9 0 -5 -14 -13 -32 -16 -26 -6 -35 -4 -46 13 -11 16 -21 19 -55 15
-41 -5 -77 -23 -46 -23 26 0 71 -47 65 -68 -6 -19 -56 -29 -56 -12 0 12 -30
21 -43 13 -6 -4 -2 -10 11 -14 28 -10 28 -23 0 -49 -27 -25 -38 -25 -45 0 -3
11 -12 20 -19 20 -16 0 -19 -26 -4 -35 11 -7 4 -25 -10 -25 -4 0 -13 14 -19
30 -5 17 -15 30 -20 30 -20 0 -11 20 13 30 29 11 40 26 26 35 -8 5 -6 13 6 26
16 17 16 19 1 19 -10 0 -17 -6 -17 -13 0 -18 -45 -41 -64 -34 -28 11 -17 24
17 19 29 -4 31 -3 16 12 -8 9 -28 18 -45 20 -33 5 -86 24 -94 34 -3 4 -20 12
-37 19 -27 9 -33 9 -33 -3 0 -13 11 -18 37 -15 6 1 18 -8 26 -20 11 -15 21
-19 36 -14 15 4 21 2 21 -9 0 -23 -19 -30 -38 -13 -26 23 -75 41 -70 25 3 -7
11 -13 19 -13 16 0 69 -51 69 -66 0 -6 9 -8 20 -4 29 9 63 -4 56 -21 -3 -8 1
-17 9 -20 8 -4 15 -10 15 -15 0 -12 -53 1 -62 15 -4 6 -10 7 -14 4 -3 -4 1
-14 10 -23 20 -20 20 -26 1 -19 -8 4 -15 10 -15 15 0 5 -10 9 -22 9 -20 1 -21
2 -6 11 18 10 14 39 -6 39 -6 0 -20 11 -30 25 -10 14 -25 25 -33 25 -7 0 -16
6 -19 14 -3 8 -17 12 -38 11 l-33 -3 8 46 c4 26 8 55 8 65 1 9 7 17 15 17 17
0 31 18 41 50 6 20 5 23 -6 12 -18 -17 -29 -15 -29 6 0 23 30 52 53 52 9 0 19
5 22 10 7 11 42 9 63 -3 6 -5 17 -5 24 -1 19 12 71 13 91 0 11 -6 33 -24 48
-41 22 -24 30 -27 40 -18 10 10 9 14 -4 19 -9 3 -17 12 -17 20 0 8 -4 14 -8
14 -5 0 -15 11 -22 25 -11 21 -19 25 -42 20 -17 -4 -40 0 -59 9 -29 15 -33 15
-44 -1 -11 -15 -15 -13 -43 18 -17 19 -34 31 -38 27 -4 -5 1 -17 10 -27 20
-22 16 -36 -14 -44 -22 -6 -37 8 -20 18 21 13 -1 23 -29 14 -23 -8 -35 -7 -55
6 -14 10 -26 21 -26 26 0 5 -7 9 -16 9 -13 0 -14 -3 -5 -14 8 -9 8 -16 2 -20
-5 -4 -12 -2 -16 4 -3 5 -14 10 -24 10 -29 0 -33 36 -6 50 13 7 28 10 33 6 10
-6 24 22 21 40 -4 21 3 36 32 69 17 19 37 35 45 35 8 0 14 5 14 10 0 6 19 20
43 30 44 21 97 26 97 11 0 -5 27 -12 60 -16 54 -6 64 -4 113 24 77 44 161 41
218 -6 9 -8 29 -16 45 -19 16 -3 40 -11 54 -19 14 -7 44 -22 67 -33 23 -12 62
-41 87 -66 24 -25 49 -46 54 -46 13 0 60 -62 77 -103 7 -17 25 -47 39 -66 32
-43 36 -73 6 -46 -23 21 -27 4 -4 -19 20 -21 40 -20 56 2 25 33 97 62 153 62
30 0 57 -5 60 -10 3 -6 15 -10 25 -10 40 0 130 -145 130 -210 0 -10 4 -20 8
-22 10 -3 88 -164 108 -222 8 -21 14 -62 14 -90 0 -28 4 -57 8 -64 7 -9 42
-12 144 -10 134 3 136 3 122 23 -10 14 -17 16 -22 8 -12 -18 -38 7 -47 46 l-7
33 32 -7 c30 -6 32 -5 25 11 -4 11 -10 29 -12 41 -3 14 -13 23 -24 23 -10 0
-21 5 -24 10 -3 6 -13 10 -21 10 -10 0 -13 -8 -9 -28 5 -27 5 -27 -9 4 -24 51
-28 107 -11 159 20 56 14 66 -18 32 -21 -24 -26 -25 -49 -13 -17 9 -30 10 -36
4 -13 -13 -52 20 -52 44 0 11 -7 18 -20 18 -22 0 -39 45 -22 62 16 16 -19 70
-42 64 -13 -3 -16 -2 -9 5 12 12 7 81 -7 114 -17 40 -17 51 3 78 14 20 18 37
13 60 -5 28 -4 30 8 15 23 -30 39 -22 33 16 -5 29 -3 33 13 29 10 -3 21 0 24
6 4 6 15 11 25 11 10 0 21 9 24 20 4 14 14 20 35 20 17 0 33 -4 36 -9 4 -5 19
-5 36 2 27 10 33 9 55 -15 14 -15 25 -32 25 -37 0 -6 6 -14 13 -18 32 -19 43
-145 15 -164 -5 -3 -1 -21 8 -40 40 -79 41 -84 21 -76 -9 3 -14 -7 -16 -36 -2
-32 1 -38 11 -30 25 20 283 90 436 119 21 4 22 9 22 100 0 55 -4 93 -9 90 -13
-9 -61 11 -61 25 0 6 -12 23 -27 37 l-27 25 48 -5 c46 -6 47 -5 42 17 -3 13 0
35 8 50 8 15 12 34 9 41 -3 8 0 14 6 14 8 0 11 51 11 164 0 163 -6 194 -33
167 -8 -8 -6 -11 6 -11 22 0 22 -12 -2 -32 -13 -11 -22 -13 -29 -6 -5 5 -18 8
-28 6 -14 -2 -18 -11 -16 -33 2 -22 -5 -39 -27 -62 -30 -33 -31 -45 -3 -36 10
3 6 -4 -8 -16 -29 -24 -70 -28 -70 -7 0 8 -12 27 -26 43 -21 23 -125 175 -213
313 -12 19 -20 26 -17 15 12 -49 19 -93 21 -125 1 -19 4 -40 6 -45 2 -6 -6
-21 -19 -35 -12 -13 -20 -31 -17 -40 5 -17 -34 -58 -88 -93 -23 -15 -34 -16
-57 -8 -21 7 -28 7 -24 -2 2 -7 -18 -24 -46 -39 -43 -23 -54 -26 -76 -16 -19
9 -30 9 -43 1 -12 -8 -22 -8 -28 -2 -6 6 -26 11 -46 12 -25 2 -42 10 -53 25
-8 12 -24 22 -35 22 -10 0 -19 7 -19 15 0 9 -7 27 -16 40 -12 19 -22 23 -40
19 -17 -4 -24 -2 -24 8 0 8 -15 20 -33 27 -51 20 -60 42 -40 93 19 47 42 70
121 124 29 20 57 47 62 60 6 14 17 27 25 30 8 4 15 12 15 20 0 27 44 38 150
38 128 1 199 -19 253 -68 42 -39 47 -31 15 23 -34 58 -59 81 -121 112 -56 28
-187 133 -187 149 0 5 8 10 18 13 13 3 11 6 -11 15 -41 17 -28 37 22 35 22 -1
41 2 41 8 0 12 -96 12 -121 -1 -24 -13 -68 8 -98 46 -33 42 -29 128 10 217 43
98 80 151 158 224 l66 63 -47 0 c-28 0 -53 6 -62 15 -8 8 -21 15 -29 15 -15 0
-52 37 -59 60 -3 8 -9 -2 -13 -24 -10 -49 -59 -106 -91 -106 -14 0 -36 7 -50
17 -14 9 -42 16 -62 15 -20 -1 -39 4 -43 10 -8 13 -48 -28 -49 -49 0 -16 -26
-17 -35 -2 -4 6 -13 8 -20 5 -14 -5 -25 17 -50 107 -8 31 -20 57 -25 57 -5 0
-7 -6 -4 -14 6 -16 -35 -43 -45 -30 -13 19 -49 14 -54 -7 -3 -12 -12 -19 -19
-17 -7 3 -26 -6 -41 -18 -28 -24 -64 -33 -52 -14 3 6 -2 10 -12 10 -43 1 -72
47 -65 105 4 33 6 37 14 20 7 -17 8 -16 4 5 -3 14 -6 70 -7 125 -2 99 -2 100
22 103 60 6 89 14 85 20 -3 5 -1 14 4 22 6 10 13 3 24 -25 9 -20 16 -44 16
-51 0 -8 18 -25 39 -39 22 -13 56 -38 75 -56 30 -26 36 -38 36 -70 0 -46 15
-52 23 -9 5 22 14 31 34 36 15 4 33 11 40 16 7 5 43 10 80 11 79 2 83 15 13
38 -52 17 -66 25 -117 73 -39 36 -34 52 10 27 40 -22 89 -33 84 -17 -2 6 -14
13 -27 14 -18 3 -20 6 -9 13 12 8 12 10 0 18 -7 5 -11 14 -7 20 9 14 -37 25
-80 18 -20 -4 -34 -2 -34 5 0 5 -7 7 -16 4 -8 -3 -12 -2 -9 4 7 11 -38 14 -48
3 -4 -3 -2 -12 4 -20 9 -10 5 -13 -19 -13 -17 0 -34 5 -37 10 -3 6 -16 10 -28
10 -12 0 -41 7 -64 16 -38 15 -43 20 -40 43 5 38 -19 57 -129 103 -91 37 -107
41 -189 41 -49 0 -136 -6 -192 -13 l-103 -13 -10 -36 c-5 -20 -10 -39 -10 -42
0 -4 57 -9 128 -13 70 -3 139 -7 155 -9 15 -2 39 -5 55 -6 l27 -3 -30 -10
c-16 -5 -83 -10 -148 -10 -97 -1 -117 -3 -113 -15 5 -11 1 -11 -15 -2 -27 14
-85 3 -93 -17 -3 -8 0 -16 7 -18 6 -2 34 -9 61 -15 51 -12 112 -37 185 -75
l45 -23 84 45 c68 36 93 44 132 43 27 0 52 4 55 9 7 12 45 13 45 2 0 -5 -20
-23 -44 -40 -25 -18 -71 -62 -103 -99 -32 -37 -94 -104 -139 -150 -66 -69 -76
-83 -58 -83 25 0 35 9 78 69 30 41 46 51 46 30 0 -6 8 -2 18 10 41 49 94 -14
85 -101 -5 -53 -5 -53 34 -77 22 -13 52 -44 68 -70 16 -25 30 -47 31 -49 1 -2
21 10 43 26 23 16 61 36 86 43 25 7 45 17 45 21 0 4 20 8 44 8 36 0 49 -5 68
-29 14 -15 31 -44 38 -62 18 -46 17 -45 46 -18 23 22 34 24 117 24 101 0 119
-8 159 -72 25 -42 18 -97 -20 -140 -38 -44 -73 -56 -103 -35 -13 9 -30 17 -38
19 -8 1 -19 9 -24 18 -8 15 -10 15 -22 -2 -12 -16 -14 -16 -32 15 -10 18 -24
30 -31 27 -25 -9 -52 14 -52 45 0 37 -9 38 -43 2 -23 -24 -32 -27 -84 -25 -32
1 -76 7 -98 12 -22 5 -40 9 -40 8 -5 -12 -35 -116 -35 -121 0 -4 9 -2 19 4 50
26 153 -7 184 -59 23 -40 24 -176 1 -185 -22 -8 -24 -8 -24 7 0 18 -67 104
-87 111 -8 4 -1 -10 16 -29 17 -20 31 -43 31 -53 0 -9 3 -26 6 -38 4 -17 -2
-26 -31 -43 -20 -11 -43 -21 -51 -21 -21 0 -17 18 5 22 18 3 18 5 -6 33 -23
26 -33 30 -72 29 l-46 -2 -2 42 c0 22 4 47 10 54 15 19 2 25 -24 12 -22 -12
-111 -36 -177 -47 -18 -3 -35 -9 -38 -14 -3 -5 -27 -9 -54 -9 -50 0 -80 20
-123 84 -10 14 -39 36 -63 48 -65 30 -94 72 -94 137 0 28 5 60 12 70 6 10 8
26 4 36 -5 15 -17 8 -70 -45 -35 -34 -69 -66 -77 -70 -7 -5 -11 -11 -9 -12 15
-12 70 -45 102 -63 43 -23 119 -81 189 -143 26 -24 65 -56 86 -71 21 -15 71
-63 111 -106 61 -65 71 -80 57 -87 -12 -7 -35 7 -98 60 -45 38 -96 77 -114 86
-17 8 -52 33 -77 53 -82 70 -181 140 -205 148 -12 4 -38 17 -57 30 -18 13 -57
31 -85 41 -48 18 -50 20 -45 48 4 16 13 37 21 46 8 9 15 23 15 32 0 20 127
141 140 133 22 -13 -37 -110 -92 -153 -23 -17 -23 -32 0 -32 22 0 82 60 82 82
0 9 20 33 46 54 69 57 90 111 24 64 -17 -12 -34 -20 -37 -17 -3 3 21 23 53 43
65 41 80 57 89 93 9 35 -2 38 -33 8 -15 -14 -39 -28 -53 -30 -14 -3 -65 -36
-112 -74 -86 -69 -224 -153 -251 -153 -8 0 -16 -6 -19 -14 -7 -18 41 -30 82
-21 l30 6 -37 -40 c-35 -39 -40 -41 -95 -41 -66 0 -209 -30 -292 -61 -31 -11
-58 -19 -60 -17 -2 2 17 26 43 54 45 49 86 74 119 74 36 0 320 150 365 193 7
7 26 18 41 25 15 6 25 17 22 22 -3 6 1 10 11 10 9 0 44 19 78 43 34 24 89 56
124 73 60 28 62 30 64 69 3 64 -2 116 -13 137 -8 14 -8 23 0 31 12 12 57 -24
66 -55 4 -10 17 -21 30 -24 28 -7 41 -34 23 -46 -35 -21 -42 -27 -35 -34 4 -4
19 -2 35 5 103 48 109 54 71 66 -17 6 -19 9 -8 16 10 6 6 9 -13 9 -40 0 -56 9
-51 29 5 18 -25 34 -141 73 -21 7 -49 24 -62 37 -18 18 -24 20 -24 8 0 -8 -3
-17 -7 -19 -8 -3 -52 -116 -61 -156 -4 -22 -2 -23 32 -17 24 5 36 3 36 -4 0
-6 -12 -11 -26 -11 -39 0 -83 -28 -84 -52 0 -13 25 -9 68 12 22 11 46 20 52
20 5 0 10 4 10 8 0 12 89 31 96 21 5 -9 -17 -49 -28 -49 -5 0 -8 -6 -8 -13 0
-17 -33 -36 -113 -63 -66 -23 -94 -24 -82 -3 16 24 -11 3 -70 -57 -65 -65
-143 -111 -171 -100 -24 9 -16 31 20 50 51 27 84 65 67 75 -10 7 -8 12 10 25
13 9 29 16 36 16 6 0 38 51 69 113 31 61 64 123 74 137 29 43 32 50 18 44 -18
-7 -118 -152 -118 -170 0 -8 -5 -14 -11 -14 -6 0 -9 -7 -5 -15 3 -9 0 -15 -8
-15 -8 0 -41 -38 -75 -84 -33 -46 -64 -86 -68 -88 -5 -1 -34 -36 -66 -76 -58
-72 -127 -132 -154 -132 -18 0 -16 8 10 44 34 45 41 69 19 62 -9 -2 -33 -8
-52 -11 -58 -11 -123 -35 -160 -59 -24 -15 -44 -20 -65 -16 l-29 5 49 42 c28
24 58 43 69 43 10 0 60 22 110 49 82 44 132 67 222 100 16 7 38 25 48 41 18
32 13 36 -28 20 -14 -5 -26 -6 -26 -2 1 17 18 31 73 57 36 18 71 46 95 74 20
25 61 72 89 103 59 64 64 78 30 78 -13 0 -48 7 -78 17 l-54 16 40 9 c25 5 58
5 89 -2 34 -7 52 -7 56 0 3 5 15 43 25 82 10 40 27 85 38 100 19 25 21 26 33
10 12 -16 14 -16 42 0 25 15 188 38 270 38 29 0 28 18 -3 32 -53 24 -12 44 71
33 47 -6 64 -14 117 -59 56 -47 128 -86 160 -86 6 0 -17 20 -53 44 -66 45
-152 126 -134 126 17 0 132 -49 228 -97 102 -51 156 -86 203 -132 20 -19 43
-31 60 -31 14 0 24 2 22 4 -13 13 -130 96 -135 96 -3 0 -27 17 -53 38 -25 21
-75 56 -111 77 -60 35 -160 120 -160 136 0 10 104 -41 108 -52 2 -5 9 -9 15
-9 15 -1 58 -40 73 -66 7 -12 26 -21 50 -24 21 -3 45 -9 52 -14 7 -4 28 -9 46
-11 l34 -3 -20 20 c-20 20 -171 94 -218 107 -17 5 -24 14 -25 33 0 19 -23 46
-96 111 -54 47 -106 99 -117 114 -27 39 -62 56 -90 46 -22 -9 -22 -9 -3 -30
11 -11 24 -23 30 -24 6 -2 12 -15 13 -29 2 -15 20 -39 45 -60 24 -19 43 -42
43 -50 0 -18 -144 123 -165 162 -12 22 -20 26 -47 23 -142 -18 -177 -12 -146
22 10 10 20 38 24 61 l7 42 68 0 c54 0 70 4 78 17 7 13 5 21 -7 30 -15 11 -15
12 6 13 25 0 30 15 8 23 -8 3 -21 -4 -28 -15 -23 -35 -44 -12 -38 42 l5 45 20
-22 c20 -23 55 -31 55 -13 0 19 27 10 46 -15 12 -16 29 -25 47 -25 l28 0 -38
45 c-22 27 -51 49 -73 56 -19 6 -41 16 -47 21 -7 6 -20 8 -28 4 -8 -3 -15 -1
-15 3 0 16 -29 20 -60 10 -16 -6 -30 -15 -30 -20 0 -5 -13 -8 -28 -7 -15 1
-33 -2 -40 -6 -18 -11 -122 56 -160 103 -24 30 -31 47 -26 65 3 13 1 27 -5 30
-5 4 -13 28 -17 54 -3 26 -9 51 -12 56 -3 5 -4 39 -3 75 3 66 17 107 45 130
21 18 20 31 -2 31 -27 0 -72 23 -72 38 0 18 -43 82 -56 82 -6 0 -21 11 -34 25
-13 14 -28 25 -34 25 -12 0 -86 78 -86 90 0 5 4 12 10 15 6 3 10 15 10 26 0
13 -7 19 -24 19 -13 0 -26 -3 -28 -7 -5 -12 -79 -49 -111 -57 -22 -5 -32 -2
-48 16 -19 22 -19 23 -34 4 -13 -17 -15 -17 -21 -3 -4 11 -17 17 -35 17 -35 0
-38 17 -4 26 13 3 29 11 34 18 8 9 -2 11 -39 10 -58 -3 -70 -9 -70 -33 0 -9
-5 -22 -12 -29 -7 -7 -8 -12 -4 -12 5 0 3 -7 -4 -15 -21 -25 -30 -17 -30 25 0
25 -5 40 -12 41 -7 1 -37 2 -65 3 -29 0 -52 4 -50 8 1 4 -7 14 -18 22 -11 9
-16 16 -11 16 5 0 3 7 -4 15 -24 29 -1 37 86 30 95 -8 143 1 242 46 34 16 64
29 67 29 2 0 51 27 108 60 81 46 114 60 145 60 23 0 42 -5 45 -12 3 -9 12 -6
29 10 13 12 36 22 51 22 17 0 27 5 27 15 0 13 -34 15 -272 13 -264 -3 -273 -4
-277 -23 -5 -30 -34 -60 -56 -60 -13 0 -21 -8 -23 -23 -3 -20 -8 -23 -25 -17
-12 4 -36 7 -54 6 -22 -1 -37 6 -47 21 -21 29 -5 55 47 78 l42 19 -57 0 c-54
1 -58 -1 -58 -21 -2 -150 -5 -170 -33 -194 -33 -29 -44 -29 -76 -5 l-23 18 32
36 c32 37 49 86 50 140 l0 27 -280 0 c-180 0 -280 -4 -280 -10 0 -5 -7 -10
-15 -10 -8 0 -15 5 -15 10 0 22 -23 7 -97 -65 -73 -70 -103 -89 -103 -65 0 12
-33 13 -45 1 -6 -5 -20 -5 -33 0 -18 7 -22 14 -17 29 5 15 2 20 -13 20 -19 0
-71 -15 -107 -30 -11 -5 -33 -11 -50 -12 -19 -2 -29 -8 -27 -16 1 -8 -3 -12
-10 -10 -7 3 -14 18 -16 35 -3 27 0 31 17 26 21 -5 29 11 11 22 -5 3 -10 15
-10 25 0 31 -39 50 -102 50 -32 0 -68 -6 -79 -12 -17 -10 -23 -10 -26 0 -6 15
-123 17 -123 2 0 -5 -7 -10 -15 -10 -8 0 -15 5 -15 10 0 15 -207 13 -212 -2
-4 -10 -10 -10 -32 0 -15 6 -37 11 -49 11 -15 -1 -17 -3 -6 -6z m1548 -39 c42
-9 29 -24 -20 -24 -81 0 -142 -46 -119 -90 8 -14 8 -26 -1 -41 -10 -19 -17
-21 -66 -16 -41 4 -62 2 -80 -10 -22 -14 -25 -14 -43 2 -11 10 -21 14 -21 9
-1 -5 -4 5 -8 21 -7 32 15 91 43 114 9 7 40 11 83 10 44 -2 82 3 108 14 44 18
76 20 124 11z m106 -33 c3 -6 -9 -30 -26 -54 l-31 -45 25 -43 c30 -51 24 -79
-12 -60 -15 8 -27 9 -40 1 -27 -14 -56 -13 -70 4 -14 17 1 44 77 140 54 66 66
75 77 57z m449 3 c9 -3 16 -12 16 -19 0 -16 -22 -25 -61 -25 -30 0 -38 17 -17
38 13 13 37 15 62 6z m-1721 -48 c15 -4 27 -11 27 -17 0 -8 -11 -9 -32 -4 -18
4 -43 8 -55 9 -12 0 -25 4 -29 9 -4 4 -18 7 -31 7 -12 0 -23 4 -23 9 0 16 42
18 80 5 19 -7 47 -15 63 -18z m1092 -166 c4 -6 8 -37 11 -70 4 -54 3 -60 -14
-60 -11 0 -40 -11 -66 -25 -25 -13 -46 -21 -46 -18 0 4 -5 2 -12 -5 -14 -14
-28 -16 -28 -2 0 5 20 43 45 83 25 41 45 79 45 85 0 20 54 30 65 12z m-1010
-41 c25 -39 32 -69 16 -69 -5 0 -14 7 -21 15 -11 13 -16 14 -34 1 -20 -13 -24
-11 -52 18 -16 17 -33 37 -38 44 -9 15 21 28 70 29 30 1 38 -4 59 -38z m291
-50 c-29 -59 -29 -59 -18 -59 5 0 18 17 30 39 27 48 45 63 66 55 23 -9 20 -19
-9 -32 -27 -12 -34 -32 -12 -32 8 0 29 7 47 16 26 13 48 15 109 10 85 -8 107
-19 134 -65 19 -32 19 -32 -1 -38 -12 -3 -22 -15 -24 -27 -2 -15 -9 -20 -23
-17 -84 16 -200 -8 -237 -49 -15 -16 -32 -30 -37 -30 -5 0 -17 -8 -26 -17 -16
-16 -18 -15 -34 5 -14 19 -20 20 -58 11 -34 -9 -51 -8 -89 5 -60 20 -70 20
-53 0 11 -14 10 -19 -10 -35 -13 -10 -27 -16 -32 -13 -5 3 -12 -2 -15 -10 -3
-9 -10 -16 -14 -16 -4 0 -24 -16 -43 -35 -26 -26 -44 -35 -68 -35 -19 0 -47
-7 -62 -15 -15 -8 -45 -17 -65 -20 l-37 -7 29 16 c15 9 35 16 42 16 8 0 14 5
14 10 0 6 7 10 15 10 8 0 15 7 15 15 0 8 -7 15 -15 15 -8 0 -15 5 -15 10 0 6
7 10 15 10 8 0 15 -4 15 -10 0 -5 9 -10 19 -10 19 0 61 47 61 69 0 6 9 16 19
23 15 9 17 16 9 25 -8 10 -1 23 26 53 20 22 36 44 36 49 0 5 16 19 34 31 19
11 38 30 41 40 8 26 45 26 78 0 14 -11 29 -20 34 -20 13 0 54 46 94 105 28 42
35 46 37 29 2 -12 -8 -46 -22 -75z m-593 69 c15 -7 27 -18 27 -24 0 -30 94
-158 135 -186 29 -19 57 -49 52 -54 -14 -14 -179 148 -199 194 -1 4 -20 21
-40 36 -21 16 -38 32 -38 37 0 13 32 11 63 -3z m1537 -13 c7 -9 24 -14 39 -13
33 4 36 -26 3 -30 -25 -4 -47 10 -63 40 -12 22 3 24 21 3z m-1780 -87 c0 -20
-4 -26 -15 -22 -10 4 -15 20 -15 48 1 38 2 40 15 22 8 -11 15 -32 15 -48z
m1362 12 c16 -31 16 -35 1 -52 -9 -10 -29 -18 -44 -18 -15 0 -35 -7 -43 -16
-9 -8 -16 -11 -16 -5 0 5 4 12 9 16 6 3 3 21 -6 42 -14 36 -14 38 8 56 34 27
71 18 91 -23z m518 -20 c0 -5 -6 -10 -14 -10 -8 0 -18 5 -21 10 -3 6 3 10 14
10 12 0 21 -4 21 -10z m302 -5 c1 -6 -16 -22 -38 -37 -31 -21 -40 -24 -42 -12
-4 18 15 43 43 54 24 10 36 8 37 -5z m198 -76 c0 -13 -13 -20 -57 -28 -32 -6
-76 -16 -98 -21 -22 -6 -53 -14 -69 -18 -22 -6 -32 -16 -38 -38 -7 -26 -14
-31 -60 -41 -29 -6 -57 -7 -61 -3 -9 8 20 60 33 60 4 0 25 12 46 27 66 45 165
78 238 79 57 0 66 -2 66 -17z m104 1 c12 -11 -30 -32 -57 -28 -14 2 -23 11
-25 26 -3 22 -1 23 35 16 21 -3 42 -10 47 -14z m-2250 -41 c-6 -11 -24 -2 -24
11 0 5 7 7 15 4 8 -4 12 -10 9 -15z m1554 -17 c7 -5 10 -16 6 -25 -7 -18 -24
-23 -24 -8 0 5 -3 16 -6 25 -7 17 3 20 24 8z m-20 -42 c35 -33 38 -40 20 -58
-15 -15 -48 12 -48 40 0 10 -4 18 -10 18 -5 0 -10 7 -10 15 0 22 11 18 48 -15z
m-523 -5 c15 0 19 -6 18 -22 -2 -17 2 -23 17 -23 33 0 24 -49 -17 -100 -2 -2
-8 1 -12 8 -5 9 -20 -10 -45 -57 -20 -39 -34 -76 -30 -83 4 -7 3 -8 -4 -4 -7
4 -18 -8 -28 -33 -14 -36 -20 -41 -48 -41 -40 0 -136 45 -136 63 0 15 27 53
68 97 13 14 35 48 48 75 13 28 36 64 50 80 24 27 26 28 19 7 -6 -21 -5 -23 13
-13 11 6 25 25 31 43 10 28 14 31 24 18 7 -8 21 -15 32 -15z m65 -5 c0 -5 -4
-10 -10 -10 -5 0 -10 5 -10 10 0 6 5 10 10 10 6 0 10 -4 10 -10z m115 -26 c9
-9 23 -27 32 -40 20 -31 8 -45 -52 -63 -41 -12 -48 -12 -65 4 -23 20 -27 55
-7 55 7 0 23 14 35 30 26 34 34 36 57 14z m-501 -50 c8 -32 3 -39 -21 -29 -10
5 -21 7 -25 7 -16 -4 -7 27 10 37 25 15 29 14 36 -15z m641 16 c3 -5 33 -10
65 -10 73 0 107 -26 151 -111 36 -73 36 -92 0 -118 -34 -25 -54 -26 -71 -6
-16 20 -40 19 -40 -1 0 -8 -4 -13 -9 -10 -14 9 -41 -5 -41 -21 0 -11 -6 -10
-26 6 -15 12 -40 21 -55 21 -17 0 -41 11 -60 28 -42 37 -43 88 -2 138 15 20
33 43 38 53 22 35 27 41 35 41 5 0 12 -4 15 -10z m-1343 -97 c6 -44 -44 -186
-50 -144 -2 12 2 29 9 37 7 9 14 44 15 77 3 73 2 67 13 67 5 0 11 -17 13 -37z
m717 -9 c9 -17 22 -29 29 -26 7 2 12 -1 12 -7 0 -6 -6 -11 -12 -11 -7 0 -21
-21 -32 -46 -12 -29 -21 -41 -26 -34 -16 26 -21 -32 -9 -100 10 -59 14 -68 26
-58 8 7 22 29 30 50 17 42 37 49 53 19 7 -15 4 -32 -15 -73 -39 -85 -42 -135
-11 -180 26 -38 21 -54 -13 -43 -25 8 -51 63 -58 125 -5 42 -9 50 -23 45 -27
-9 -60 44 -60 94 0 46 11 52 34 19 9 -12 16 -17 16 -11 0 7 -4 15 -10 18 -5 3
-10 38 -10 78 0 64 -1 69 -15 51 -13 -17 -14 -14 -15 44 0 52 3 62 18 64 9 0
22 2 29 2 6 1 15 5 19 9 12 12 26 3 43 -29z m1202 16 c10 -6 26 -25 36 -43 9
-18 18 -26 20 -19 6 15 53 16 53 1 0 -6 6 -9 13 -6 47 17 57 18 57 3 0 -9 7
-16 15 -16 8 0 15 -4 15 -10 0 -5 7 -10 15 -10 8 0 15 -7 15 -15 0 -8 11 -17
25 -21 14 -3 25 -11 25 -16 0 -6 7 -7 16 -4 11 4 15 2 11 -8 -3 -7 0 -19 6
-25 8 -8 7 -11 -5 -11 -24 0 -27 -22 -7 -49 12 -15 19 -41 20 -70 0 -25 4 -55
8 -65 13 -34 -2 -73 -57 -142 -44 -55 -50 -65 -30 -59 12 4 55 11 93 15 67 8
74 6 154 -28 106 -46 126 -71 146 -183 8 -46 15 -99 15 -118 0 -35 -43 -132
-70 -156 -125 -114 -154 -125 -247 -93 -29 10 -74 18 -100 19 -80 2 -93 8
-120 58 -1 2 -18 -7 -37 -19 -20 -12 -36 -17 -36 -12 0 5 7 13 16 16 8 3 13
10 10 15 -7 11 -86 11 -86 0 0 -5 6 -9 14 -9 15 0 32 -37 22 -47 -3 -3 -13 -2
-23 2 -10 5 -29 9 -43 10 -14 2 -35 6 -46 10 -16 5 -28 0 -45 -19 -26 -27 -75
-49 -90 -40 -6 3 -29 -12 -53 -33 -111 -98 -192 -146 -306 -183 -73 -24 -120
-42 -215 -81 -75 -31 -124 -47 -129 -42 -3 4 -6 -1 -6 -11 0 -10 -5 -14 -11
-11 -9 6 -161 -44 -244 -80 -27 -12 -69 -22 -102 -24 -7 -1 -13 -12 -13 -26 0
-22 -4 -25 -34 -25 -26 0 -45 -10 -83 -44 -35 -32 -45 -47 -37 -56 8 -8 14 -7
24 5 7 8 24 15 39 15 14 0 73 12 131 26 145 36 255 53 274 42 20 -11 21 -48 1
-48 -8 0 -26 -13 -40 -29 -18 -20 -39 -30 -68 -34 -86 -13 -128 -25 -141 -42
-8 -12 -25 -17 -52 -17 -23 0 -53 -7 -69 -18 -27 -18 -29 -18 -56 2 -25 19
-29 19 -49 5 -12 -9 -28 -13 -35 -11 -7 3 -16 -3 -19 -14 -5 -14 -13 -18 -31
-14 -27 5 -33 17 -12 25 7 3 5 6 -6 6 -10 1 -20 -5 -23 -13 -7 -18 -74 -4 -91
20 -9 13 -21 15 -50 11 -31 -5 -51 -20 -111 -84 -56 -59 -71 -71 -62 -48 14
36 138 154 163 155 4 0 7 7 7 15 0 8 12 17 27 21 16 3 43 13 61 21 18 8 54 18
80 22 57 9 65 13 136 75 42 38 56 56 56 77 0 37 74 102 165 144 132 62 180 82
205 89 14 4 34 11 45 16 11 5 56 19 99 30 75 21 146 56 146 73 0 4 -6 7 -13 7
-19 0 -41 40 -28 53 32 32 -5 27 -129 -18 -71 -26 -86 -28 -295 -32 -154 -2
-231 0 -257 8 -43 14 -44 16 -22 47 18 26 45 28 105 6 46 -16 95 -11 229 22
30 7 98 16 150 19 64 4 109 13 139 26 34 16 55 19 88 14 39 -6 43 -9 43 -36 0
-16 2 -29 5 -29 2 0 30 7 62 16 68 18 183 45 303 69 126 25 156 33 146 34 -5
0 0 11 11 24 11 12 27 35 34 51 16 32 32 36 37 9 15 -84 34 -115 45 -74 3 14
15 21 38 23 25 2 33 7 29 18 -2 8 -4 56 -4 105 -1 81 3 97 32 158 18 37 39 70
47 74 30 11 13 23 -33 23 -40 0 -55 6 -88 34 -47 40 -135 86 -165 86 -27 0
-99 73 -99 100 0 34 -24 22 -52 -28 -44 -75 -65 -99 -78 -86 -8 9 6 37 54 108
60 88 66 102 66 148 0 27 6 64 14 81 8 18 18 44 23 59 14 47 75 118 96 112 10
-3 23 -1 30 4 31 26 117 38 148 22z m464 -70 c14 0 17 -4 19 -31 1 -7 -19 -13
-46 -15 -36 -4 -61 2 -113 26 -36 17 -63 35 -60 40 3 5 40 8 85 5 60 -4 80 -2
81 7 0 7 4 3 9 -9 5 -13 16 -23 25 -23z m-1805 -91 c0 -5 -4 -9 -10 -9 -5 0
-10 7 -10 16 0 8 5 12 10 9 6 -3 10 -10 10 -16z m-331 -8 c9 -6 11 -18 7 -35
-4 -15 -11 -24 -16 -21 -5 3 -18 1 -28 -4 -16 -8 -21 -6 -31 16 -6 14 -10 26
-9 27 2 0 12 6 23 13 24 14 36 15 54 4z m-299 -38 c0 -21 -3 -24 -9 -14 -5 8
-7 20 -4 28 8 21 13 15 13 -14z m641 -40 c10 -52 3 -123 -12 -123 -6 0 -8 4
-5 9 4 5 -1 37 -10 71 -16 64 -12 122 8 102 5 -5 14 -32 19 -59z m1791 24 c15
-24 7 -25 -44 -5 -70 26 -73 32 -13 23 28 -4 53 -12 57 -18z m-1942 8 c0 -2
-20 -16 -43 -30 -45 -26 -101 -33 -112 -14 -10 16 3 23 18 10 15 -12 64 0 102
26 20 13 35 17 35 8z m-513 -92 c-3 -10 -5 -4 -5 12 0 17 2 24 5 18 2 -7 2
-21 0 -30z m1177 22 c-4 -9 0 -16 7 -16 8 -1 21 -3 29 -4 8 -1 26 -3 40 -4 25
-3 25 -3 -5 -16 l-30 -13 29 -12 c16 -6 35 -9 42 -6 8 3 16 1 19 -4 3 -5 20
-16 38 -25 29 -14 33 -14 43 0 10 13 15 13 35 3 13 -7 24 -20 24 -28 0 -8 8
-14 17 -14 10 1 14 -4 11 -12 -2 -7 -10 -11 -17 -8 -15 6 -42 -24 -48 -51 -2
-13 -10 -19 -22 -17 -15 3 -18 -1 -13 -17 6 -22 -8 -38 -18 -21 -16 26 -116
-1 -107 -30 4 -12 2 -13 -9 -2 -18 17 -42 15 -35 -3 3 -8 -3 -19 -14 -25 -24
-13 -33 -13 -24 1 3 6 0 16 -7 21 -10 7 -7 7 9 3 13 -4 22 -2 22 5 0 17 -29
23 -46 9 -14 -11 -18 -11 -28 1 -15 20 -72 51 -88 49 -7 -1 -20 -1 -28 0 -13
1 -13 2 0 11 13 9 13 11 0 20 -8 5 -19 11 -25 13 -6 2 -4 10 4 20 12 16 15 15
41 -3 30 -21 45 -26 36 -11 -4 5 0 12 6 15 10 4 10 7 1 12 -36 17 -55 45 -60
92 -4 44 -3 50 16 55 24 6 30 -20 7 -29 -15 -6 -11 -38 8 -64 13 -17 52 -27
41 -11 -3 6 -13 11 -20 11 -13 0 -34 47 -24 53 48 26 75 37 92 37 22 1 22 1
-1 14 -23 12 -22 13 17 14 32 2 39 -1 35 -13z m-593 -81 c12 -23 11 -27 -4
-38 -9 -7 -14 -16 -10 -19 9 -10 -45 -27 -62 -21 -8 4 -15 12 -15 20 0 14 57
84 69 84 4 0 14 -12 22 -26z m390 -7 c-16 -16 -26 0 -10 19 9 11 15 12 17 4 2
-6 -1 -17 -7 -23z m-657 -7 c80 -30 132 -73 180 -148 72 -113 79 -176 34 -303
-20 -57 -36 -71 -91 -84 -15 -3 -25 -10 -22 -15 4 -6 -7 -10 -24 -10 -16 0
-31 5 -33 11 -2 6 -26 13 -53 15 -50 4 -80 25 -71 50 3 9 -5 11 -30 7 -30 -5
-34 -3 -34 17 0 19 -2 21 -16 9 -14 -12 -13 -15 10 -32 34 -24 37 -53 4 -35
-37 21 -68 50 -68 65 0 7 -5 13 -11 13 -6 0 -9 9 -6 20 3 13 0 20 -9 20 -17 0
-19 17 -2 22 8 3 4 9 -10 17 -21 11 -23 10 -29 -20 l-6 -32 -17 42 c-9 23 -19
39 -23 35 -7 -7 -11 16 -9 46 1 8 -4 40 -10 70 -10 51 -9 59 15 110 32 67 44
81 82 100 76 36 167 40 249 10z m274 -107 c6 -16 14 -42 17 -60 6 -32 21 -49
57 -68 29 -14 27 -29 -4 -33 -53 -6 -87 31 -107 114 -5 22 -12 47 -16 57 -6
13 -2 17 18 17 18 0 28 -8 35 -27z m877 -12 c1 -11 -6 -22 -17 -24 -20 -6 -34
8 -18 18 5 3 10 16 10 28 0 16 3 18 12 9 6 -6 12 -20 13 -31z m-525 -21 c0 -5
-4 -10 -9 -10 -6 0 -13 5 -16 10 -3 6 1 10 9 10 9 0 16 -4 16 -10z m475 -20
c3 -5 -1 -10 -9 -10 -9 0 -16 5 -16 10 0 6 4 10 9 10 6 0 13 -4 16 -10z m-369
-25 c14 -14 31 -25 39 -25 8 0 15 -5 15 -10 0 -6 -14 -9 -30 -8 -17 1 -29 7
-26 13 2 5 -6 20 -17 33 -28 30 -12 28 19 -3z m414 15 c0 -5 -4 -10 -10 -10
-5 0 -10 5 -10 10 0 6 5 10 10 10 6 0 10 -4 10 -10z m-466 -26 c17 -17 21 -34
8 -34 -5 0 -19 11 -32 25 -19 20 -20 25 -7 25 8 0 23 -7 31 -16z m-74 -10 c0
-2 -7 -4 -15 -4 -8 0 -15 4 -15 10 0 5 7 7 15 4 8 -4 15 -8 15 -10z m405 6 c3
-5 -1 -10 -9 -10 -9 0 -16 5 -16 10 0 6 4 10 9 10 6 0 13 -4 16 -10z m85 -12
c0 -5 -6 -8 -14 -5 -8 3 -16 1 -18 -5 -2 -6 -13 -8 -23 -6 -17 3 -16 6 10 19
31 16 45 15 45 -3z m30 2 c0 -5 -4 -10 -10 -10 -5 0 -10 5 -10 10 0 6 5 10 10
10 6 0 10 -4 10 -10z m-135 -30 c10 -11 26 -20 37 -20 10 0 18 -4 18 -10 0
-14 -36 -12 -52 3 -7 7 -21 16 -31 20 -10 4 -15 11 -12 17 9 15 20 12 40 -10z
m-401 -16 c9 -24 7 -28 -9 -14 -17 14 -20 30 -6 30 5 0 12 -7 15 -16z m111 6
c3 -5 1 -10 -4 -10 -6 0 -11 5 -11 10 0 6 2 10 4 10 3 0 8 -4 11 -10z m113 -8
c2 -7 -2 -10 -12 -6 -9 3 -16 11 -16 16 0 13 23 5 28 -10z m-153 -12 c3 -5 -1
-10 -9 -10 -9 0 -16 5 -16 10 0 6 4 10 9 10 6 0 13 -4 16 -10z m290 -9 c-3 -6
-11 -11 -17 -11 -6 0 -6 6 2 15 14 17 26 13 15 -4z m125 15 c0 -3 -4 -8 -10
-11 -5 -3 -10 -1 -10 4 0 6 5 11 10 11 6 0 10 -2 10 -4z m-337 -43 c-7 -2 -19
-2 -25 0 -7 3 -2 5 12 5 14 0 19 -2 13 -5z m187 -14 c0 -5 -4 -9 -10 -9 -5 0
-10 7 -10 16 0 8 5 12 10 9 6 -3 10 -10 10 -16z m664 -21 c13 -36 -29 -121
-89 -180 -46 -46 -171 -125 -182 -115 -2 3 -41 -8 -85 -24 -81 -29 -109 -32
-129 -12 -6 6 -18 9 -25 6 -14 -5 -20 13 -6 19 7 3 21 22 66 88 13 19 50 51
82 70 33 19 84 52 114 75 93 69 149 97 181 93 17 -3 32 -1 35 4 10 15 28 3 38
-24z m-634 2 c0 -5 -2 -10 -4 -10 -3 0 -8 5 -11 10 -3 6 -1 10 4 10 6 0 11 -4
11 -10z m40 -14 c0 -11 -19 -15 -25 -6 -3 5 1 10 9 10 9 0 16 -2 16 -4z m-483
-52 c-3 -3 -12 -4 -19 -1 -8 3 -5 6 6 6 11 1 17 -2 13 -5z m-147 -74 c0 -5 -2
-10 -4 -10 -3 0 -8 5 -11 10 -3 6 -1 10 4 10 6 0 11 -4 11 -10z m-690 -260 c0
-5 -4 -10 -10 -10 -5 0 -10 5 -10 10 0 6 5 10 10 10 6 0 10 -4 10 -10z m137
-44 c5 -9 33 -16 83 -20 160 -11 149 -7 194 -58 49 -53 80 -140 67 -186 -11
-36 -67 -118 -87 -126 -8 -3 -23 -2 -33 4 -12 6 -22 5 -28 -1 -6 -6 -36 -7
-76 -3 l-65 7 -81 79 c-45 43 -81 85 -81 92 0 8 -9 33 -19 56 -17 37 -20 40
-26 21 -12 -37 -25 -22 -25 28 0 42 4 53 26 70 15 12 32 21 39 21 7 0 18 7 25
15 16 19 76 20 87 1z m2313 -49 l105 -36 -167 0 c-100 -1 -169 -5 -173 -11 -3
-5 -28 -10 -56 -10 -52 0 -67 -16 -21 -23 17 -2 9 -5 -20 -6 -26 0 -49 3 -52
8 -6 10 -9 9 -96 -10 -52 -12 -53 -13 -25 -20 17 -4 2 -5 -31 -2 -40 3 -64 1
-68 -6 -4 -6 -25 -11 -46 -11 -47 0 -143 -19 -150 -31 -6 -9 -89 -19 -94 -10
-9 15 15 51 33 51 11 0 23 4 26 10 12 20 133 79 205 100 132 39 143 41 230 48
156 13 282 0 400 -41z m170 -57 c0 -5 -12 -12 -27 -16 -16 -4 -38 -13 -50 -20
-14 -9 -24 -10 -28 -4 -3 6 0 10 8 10 8 0 20 6 27 14 10 13 21 17 63 25 4 0 7
-3 7 -9z m-580 -40 c0 -5 -9 -10 -20 -10 -11 0 -20 5 -20 10 0 6 9 10 20 10
11 0 20 -4 20 -10z m-1070 -40 c0 -10 -43 -31 -105 -51 -22 -7 -47 -19 -56
-26 -23 -19 -31 -16 -19 7 21 40 90 80 137 80 23 0 43 -4 43 -10z m1610 -11
c0 -5 -19 -9 -42 -8 l-43 1 30 13 c30 13 55 10 55 -6z m670 -24 c14 -17 5 -35
-17 -35 -15 0 -42 27 -43 43 0 13 47 7 60 -8z m-2606 -13 c3 -5 -7 -15 -22
-23 -15 -7 -36 -20 -47 -30 -42 -34 -73 -32 -54 4 9 16 13 17 20 6 7 -11 9
-11 9 -1 0 20 27 43 43 36 8 -3 18 -1 22 5 8 13 22 14 29 3z m909 1 c9 -8 -24
-32 -45 -33 -26 0 -22 28 5 33 12 2 25 5 28 6 3 0 9 -2 12 -6z m472 -54 c-7
-20 -8 -21 -17 -5 -5 9 -7 24 -4 33 10 26 29 -1 21 -28z m355 7 c0 -19 -4 -38
-10 -41 -18 -11 -11 -31 15 -43 37 -17 30 -31 -12 -26 -31 4 -43 0 -69 -24
-17 -16 -34 -37 -37 -46 -5 -13 -11 -15 -20 -8 -8 7 -35 4 -86 -9 -41 -11 -83
-17 -93 -13 -12 3 -18 0 -18 -10 0 -12 -5 -14 -22 -7 -13 4 -61 7 -108 5 -107
-3 -117 0 -125 39 -10 51 -26 87 -40 87 -19 0 -64 -46 -70 -73 -4 -14 -2 -34
4 -44 9 -15 10 -16 11 -2 0 21 50 33 50 13 0 -8 -7 -14 -15 -14 -10 0 -15 -10
-15 -30 0 -32 -22 -50 -63 -50 -13 0 -34 -11 -47 -25 -13 -14 -29 -25 -36 -25
-7 0 -20 -10 -28 -22 -8 -12 -25 -22 -38 -24 -13 -1 -26 -3 -30 -3 -5 -1 -8
-8 -8 -16 0 -9 -11 -20 -24 -25 -14 -5 -41 -25 -61 -44 -20 -20 -41 -36 -46
-36 -6 0 -9 -6 -7 -12 5 -22 -42 -66 -63 -61 -10 3 -19 1 -19 -5 0 -15 -45
-62 -59 -62 -6 0 -11 -4 -11 -9 0 -5 -10 -13 -22 -17 -13 -4 -28 -14 -35 -23
-10 -13 -12 -13 -13 -2 0 10 -6 8 -21 -8 -17 -18 -28 -22 -55 -17 -36 7 -74
-10 -74 -33 0 -8 -2 -12 -5 -9 -27 27 99 166 231 254 45 30 87 54 93 54 30 0
103 49 175 119 44 42 95 90 113 107 18 18 33 36 33 42 0 5 -26 10 -57 11 -32
1 -98 5 -148 10 -58 6 -92 5 -96 -1 -10 -16 -46 1 -54 25 -3 12 -8 17 -11 10
-4 -8 -13 -9 -29 -3 -20 8 -25 5 -30 -11 -5 -16 -13 -20 -31 -16 -26 5 -48
-20 -60 -67 -7 -29 -24 -35 -24 -8 1 39 27 115 35 102 6 -10 10 -9 17 4 5 9
20 16 34 16 14 0 37 9 51 20 17 13 33 18 49 14 14 -4 42 2 67 12 35 15 74 18
232 19 434 4 499 6 602 25 57 10 127 30 156 44 69 34 77 33 77 -8z m1190 -12
c0 -2 -9 -4 -20 -4 -11 0 -20 4 -20 9 0 5 9 7 20 4 11 -3 20 -7 20 -9z m-1580
-18 c0 -2 -7 -6 -15 -10 -8 -3 -15 -1 -15 4 0 6 7 10 15 10 8 0 15 -2 15 -4z
m1195 -166 c3 -5 1 -10 -4 -10 -6 0 -11 5 -11 10 0 6 2 10 4 10 3 0 8 -4 11
-10z m-3000 -60 c-8 -13 -125 -73 -131 -67 -8 7 38 58 60 67 30 12 79 12 71 0z
m1691 -59 c-8 -12 -109 -81 -114 -77 -8 9 15 39 56 70 28 23 49 33 55 27 5 -5
6 -14 3 -20z m-484 0 c4 -3 -3 -18 -15 -31 -17 -19 -30 -24 -56 -22 -19 2 -44
-1 -55 -7 -12 -5 -30 -11 -40 -13 -12 -2 -23 -15 -27 -31 -12 -43 -25 -55
-113 -97 -99 -47 -232 -71 -272 -49 -20 10 -34 11 -72 0 -25 -6 -52 -17 -60
-23 -18 -16 -60 -16 -80 -2 -15 11 -15 14 2 33 11 12 29 21 42 21 12 0 44 9
71 21 61 27 233 92 343 131 58 20 86 26 88 18 2 -6 16 2 31 19 15 17 38 35 52
40 25 11 148 5 161 -8z m-1318 -87 c20 -20 20 -33 -1 -56 -23 -25 -63 -24 -63
2 0 18 -4 20 -35 14 -38 -7 -44 2 -23 36 16 25 98 28 122 4z m-111 -186 c8
-18 21 -48 27 -65 15 -40 21 -40 68 -6 l37 27 -29 -31 c-27 -30 -28 -33 -11
-49 17 -17 19 -17 54 3 28 16 36 27 37 52 3 56 65 101 139 101 44 0 143 -46
150 -71 7 -22 -25 -61 -83 -100 -49 -33 -74 -36 -128 -13 -44 18 -132 13 -145
-8 -12 -19 -59 9 -84 49 -11 18 -25 32 -31 33 -6 0 -14 18 -18 39 -3 22 -9 46
-12 55 -12 30 13 16 29 -16z m2097 -23 c-13 -14 -20 -25 -15 -25 4 0 -10 -13
-31 -28 -21 -16 -64 -57 -94 -91 -30 -35 -77 -79 -105 -99 -27 -21 -57 -44
-66 -52 -9 -8 -75 -69 -148 -135 -73 -66 -139 -130 -147 -143 -8 -13 -26 -27
-40 -32 -25 -10 -32 -35 -11 -43 6 -3 33 -2 60 1 33 3 47 1 47 -7 0 -7 5 -9
10 -6 6 4 18 1 26 -6 8 -6 18 -9 21 -5 4 4 1 11 -7 17 -10 6 -11 12 -5 17 6 4
33 22 60 41 46 33 48 35 27 44 -25 11 -31 43 -6 33 16 -6 100 36 174 89 56 39
105 59 126 51 23 -9 5 -27 -64 -68 -55 -31 -56 -33 -28 -36 16 -2 32 1 35 6 7
11 78 36 151 52 30 7 75 22 100 32 72 32 160 57 165 48 17 -28 -198 -119 -320
-136 -16 -3 -41 -7 -55 -10 l-25 -6 25 -19 c14 -10 30 -19 36 -19 45 -1 -12
-94 -65 -107 -22 -5 -115 -77 -101 -78 8 0 -23 -38 -57 -68 l-31 -28 -26 24
c-14 13 -26 28 -26 32 0 4 -13 23 -30 41 -28 32 -30 33 -40 15 -13 -26 -13
-34 3 -28 9 3 13 -4 12 -21 0 -19 -10 -33 -35 -49 -41 -27 -81 -73 -74 -85 9
-14 18 -9 59 28 23 22 41 32 43 25 2 -6 -2 -18 -8 -26 -10 -12 -9 -16 6 -21
11 -3 26 -8 34 -11 10 -3 0 -12 -27 -26 -48 -23 -53 -32 -22 -40 18 -5 20 -11
14 -34 -3 -15 -11 -31 -17 -34 -6 -4 -12 -20 -13 -36 -1 -15 -3 -36 -3 -46 -1
-10 -8 -17 -14 -14 -7 2 -12 10 -10 17 3 11 0 11 -12 0 -9 -7 -16 -25 -16 -41
0 -17 -8 -34 -22 -43 -18 -13 -19 -16 -5 -16 10 0 17 -8 17 -20 0 -11 -7 -20
-16 -20 -8 0 -13 -4 -10 -9 7 -10 -61 -31 -101 -31 -17 0 -36 6 -42 14 -10 12
-6 19 18 37 17 13 27 25 21 29 -8 5 25 117 40 130 3 3 16 29 30 58 27 61 43
72 85 65 20 -4 27 -2 20 5 -12 12 -125 22 -125 11 0 -4 5 -11 10 -14 14 -9 -7
-35 -26 -35 -8 0 -13 -3 -12 -7 1 -5 -15 -26 -35 -47 -20 -22 -37 -45 -37 -52
0 -7 -6 -14 -12 -17 -8 -2 -9 -8 -4 -13 5 -5 11 -4 13 4 3 6 11 12 18 12 8 0
21 7 30 16 9 9 19 13 23 9 4 -4 1 -10 -5 -12 -7 -3 -13 -13 -13 -24 0 -17 -7
-18 -95 -14 -91 3 -96 3 -127 -23 l-31 -27 6 27 c6 21 3 28 -13 33 -11 3 -25
3 -31 -1 -6 -3 -15 0 -20 7 -6 11 -12 9 -31 -7 -33 -29 -81 -26 -107 7 l-20
26 21 39 c25 48 36 55 68 49 33 -6 52 6 40 25 -7 10 -10 11 -10 3 0 -7 -4 -13
-10 -13 -5 0 -10 9 -10 20 0 30 -26 14 -96 -60 -38 -40 -60 -56 -65 -49 -9 16
-39 4 -39 -16 0 -22 -29 -65 -65 -97 -31 -29 -69 -36 -81 -17 -4 8 1 9 17 4
21 -7 22 -6 10 9 -7 9 -23 16 -34 16 -11 0 -26 8 -33 18 -13 16 -13 16 -13 -3
0 -21 47 -79 70 -87 10 -3 6 -9 -11 -18 -14 -7 -37 -24 -52 -38 -23 -21 -28
-23 -28 -9 0 21 -10 21 -35 3 -13 -10 -28 -11 -49 -5 -20 6 -32 5 -34 -1 -6
-16 -60 -41 -67 -31 -3 6 -18 6 -37 0 -35 -10 -60 3 -51 27 6 17 -13 19 -23 2
-5 -8 -9 -6 -14 7 -3 10 -22 23 -41 29 -51 17 -41 31 24 34 61 3 87 -8 87 -37
0 -31 34 -42 83 -25 41 14 45 18 55 62 6 26 9 49 7 51 -2 2 -26 -15 -53 -38
-56 -48 -77 -53 -68 -16 5 20 3 25 -13 25 -10 0 -24 7 -31 15 -13 15 -57 12
-98 -8 -21 -10 -26 -8 -43 13 -15 20 -19 22 -19 8 0 -10 -4 -18 -10 -18 -21 0
-9 27 29 66 29 31 54 45 100 58 60 17 63 17 89 -1 37 -24 242 -27 242 -3 0 12
-15 14 -88 12 -94 -4 -142 8 -142 34 0 12 -7 15 -28 11 -15 -3 -44 -8 -65 -12
-42 -9 -120 11 -114 29 2 6 31 24 65 41 34 16 62 33 62 38 0 10 -28 9 -51 -3
-14 -8 -19 -7 -19 1 0 30 164 149 213 154 12 2 48 11 80 20 108 31 237 20 237
-21 0 -7 3 -14 8 -16 10 -4 42 -63 42 -77 0 -6 -13 -11 -30 -11 -20 0 -30 -5
-30 -15 0 -14 16 -20 52 -17 9 1 26 -10 36 -23 22 -27 41 -32 60 -13 9 9 8 14
-5 23 -8 6 -21 28 -28 48 l-12 36 37 15 c20 8 48 30 63 49 37 49 136 121 223
163 65 31 74 39 74 63 0 15 -5 32 -10 37 -7 7 -4 16 9 28 18 16 32 49 114 261
17 44 39 92 49 107 10 14 18 30 18 36 0 5 7 15 15 22 13 10 15 9 15 -11 0 -41
-20 -97 -44 -126 -13 -16 -30 -48 -37 -73 -7 -25 -20 -54 -30 -65 -10 -11 -20
-37 -23 -56 -2 -20 -14 -58 -27 -85 -13 -27 -24 -63 -25 -79 -2 -29 0 -31 29
-31 18 0 44 -3 59 -7 24 -6 31 0 85 75 32 44 68 92 81 106 13 13 22 25 20 27
-2 2 -34 -5 -73 -15 -38 -10 -75 -15 -82 -13 -20 8 -15 23 6 23 37 0 144 39
167 61 13 12 24 17 24 11 0 -28 40 -7 115 61 45 39 108 96 140 125 37 33 55
55 48 58 -7 3 -13 12 -13 21 0 9 -6 12 -19 8 -10 -3 -55 -7 -101 -10 -70 -3
-80 -2 -70 11 7 7 21 14 32 14 10 0 21 7 24 15 5 12 17 14 53 10 76 -9 83 -11
96 -28 7 -9 17 -17 23 -17 16 0 82 38 115 66 40 34 69 33 37 -1z m-2140 -16
c10 -18 9 -20 -7 -17 -10 2 -19 11 -21 21 -5 24 15 21 28 -4z m1800 -144 c-14
-8 -34 -14 -44 -15 -20 0 -20 0 0 15 10 8 30 14 44 14 l25 0 -25 -14z m-1046
-4 c33 -13 96 -22 186 -26 41 -2 76 -9 78 -14 2 -6 -3 -11 -12 -11 -9 0 -16
-7 -16 -15 0 -18 -13 -18 -100 -4 -94 14 -165 39 -179 60 -13 22 1 25 43 10z
m301 -40 c3 -5 1 -12 -5 -16 -5 -3 -10 1 -10 9 0 18 6 21 15 7z m-865 -49 c0
-12 -3 -12 -15 -2 -8 7 -15 22 -15 34 1 21 1 21 15 2 8 -11 15 -26 15 -34z
m1185 30 c-20 -18 -75 -46 -75 -37 0 7 74 55 85 55 5 0 1 -8 -10 -18z m970 9
c3 -6 -23 -23 -57 -39 -103 -49 -223 -80 -333 -87 l-100 -6 24 20 c13 12 33
23 45 25 70 13 232 52 296 72 83 25 116 29 125 15z m-1882 -17 c3 -4 0 -11 -6
-18 -19 -17 -100 -57 -105 -52 -7 8 52 63 74 69 30 7 30 7 37 1z m-223 -18 c0
-15 -18 -31 -26 -23 -7 7 7 37 17 37 5 0 9 -6 9 -14z m404 -11 c43 -15 105
-39 139 -54 34 -15 79 -34 99 -40 21 -7 52 -26 70 -44 34 -31 58 -43 58 -26 0
20 57 6 99 -24 31 -23 45 -40 47 -60 4 -40 -28 -53 -92 -37 -88 21 -110 23
-125 7 -9 -8 -34 -15 -57 -15 -33 -1 -48 5 -67 26 -14 15 -25 31 -25 36 0 4
-7 3 -15 -4 -21 -18 -85 -14 -99 5 -6 8 -37 20 -69 25 -48 8 -62 6 -85 -8 -17
-10 -26 -24 -24 -34 2 -12 -3 -18 -16 -18 -22 0 -39 18 -70 77 -14 25 -19 44
-13 48 6 3 16 25 23 48 6 23 23 59 36 80 22 33 29 37 66 37 23 0 77 -11 120
-25z m-689 -25 c11 -17 -5 -32 -21 -19 -8 6 -14 15 -14 20 0 12 27 11 35 -1z
m995 -2 c-1 -34 -24 -44 -77 -35 -29 5 -53 12 -53 17 0 9 63 27 103 29 16 1
27 -4 27 -11z m90 7 c0 -9 -51 -25 -61 -19 -17 10 1 24 32 24 16 0 29 -2 29
-5z m110 -5 c0 -5 -9 -14 -21 -20 -19 -11 -20 -10 -9 9 11 22 30 29 30 11z
m-849 -24 c-8 -9 -8 -16 -2 -20 12 -8 3 -36 -10 -36 -5 0 -9 6 -9 14 0 8 -6
17 -12 20 -9 3 -7 9 6 20 25 20 42 21 27 2z m3631 -6 c48 -14 59 -44 27 -74
-43 -38 -147 -106 -163 -106 -9 0 -16 8 -16 18 0 28 -30 66 -43 53 -7 -7 -7
-18 3 -36 18 -34 3 -49 -32 -33 -49 23 -43 122 10 181 15 17 27 19 97 14 44
-3 97 -11 117 -17z m-3532 -23 c0 -28 -22 -36 -48 -19 l-25 16 24 7 c38 11 49
10 49 -4z m688 -32 c34 -14 71 -25 82 -25 11 0 20 -4 20 -10 0 -13 -32 -13
-62 -1 -13 5 -49 17 -80 27 -32 9 -58 21 -58 25 0 16 35 10 98 -16z m2255 -66
c26 -7 47 -19 47 -26 0 -20 -48 -28 -68 -11 -9 8 -25 18 -34 21 -10 4 -18 14
-18 23 0 9 6 14 13 12 6 -3 33 -11 60 -19z m627 12 c0 -16 -38 -57 -77 -83
-118 -78 -252 -158 -265 -158 -9 0 -18 -4 -20 -8 -3 -10 -32 -26 -123 -70 -77
-37 -105 -46 -105 -33 0 6 30 25 68 42 37 17 87 40 112 51 25 12 54 29 65 38
11 10 36 26 55 36 55 29 236 153 255 175 19 20 35 25 35 10z m-1589 -54 c-12
-30 -29 -35 -38 -11 -3 9 4 26 18 40 27 29 37 15 20 -29z m1692 18 c-1 -10 3
-27 8 -36 16 -30 -6 -29 -35 2 -15 16 -35 29 -44 29 -12 0 -11 -4 6 -23 12
-13 22 -28 22 -35 0 -18 -36 -32 -68 -26 -25 5 -30 3 -36 -20 -5 -19 -13 -26
-31 -26 -28 0 -32 13 -10 32 38 32 45 40 40 48 -7 12 26 50 43 50 7 0 15 6 18
14 4 10 19 14 47 12 35 -1 42 -5 40 -21z m-546 -32 c-2 -10 -8 -26 -12 -35 -9
-22 8 -24 28 -4 8 8 30 18 50 21 30 6 40 3 61 -19 15 -14 26 -29 26 -34 0 -10
-96 -70 -143 -90 -48 -20 -57 -16 -46 20 5 18 9 34 9 35 0 2 -11 3 -24 3 -14
0 -28 5 -31 10 -6 10 -28 8 -105 -6 l-25 -4 28 25 c15 14 34 25 41 25 8 0 16
7 20 15 3 10 19 15 46 15 29 0 43 5 52 20 16 25 32 26 25 3z m-881 -12 c9 -8
168 -73 212 -86 23 -7 31 -25 10 -25 -26 0 -95 23 -158 52 -101 46 -110 51
-110 60 0 11 33 10 46 -1z m-41 -49 c-3 -3 -11 0 -18 7 -9 10 -8 11 6 5 10 -3
15 -9 12 -12z m-340 -24 c44 -6 84 -18 88 -25 4 -7 17 -13 28 -13 11 0 35 -11
53 -25 18 -14 38 -25 44 -25 7 0 12 -4 12 -10 0 -5 -6 -10 -12 -10 -20 0 -101
30 -116 43 -9 7 -16 7 -20 0 -4 -6 -18 -14 -31 -18 -19 -6 -23 -4 -18 7 3 10
-8 20 -38 32 -54 23 -105 56 -85 56 8 0 51 -5 95 -12z m466 -27 c35 -16 88
-34 116 -40 68 -14 218 -15 263 -2 24 8 37 8 45 0 30 -30 -98 -57 -224 -46
-109 9 -292 81 -275 108 7 12 2 13 75 -20z m520 -21 c-24 -21 -67 -28 -56 -9
8 12 43 28 65 28 10 0 8 -6 -9 -19z m-1181 -89 c19 -4 55 -17 80 -29 45 -20
121 -45 235 -77 33 -9 98 -30 145 -47 47 -17 95 -31 108 -32 23 -1 31 -29 12
-41 -5 -3 -10 -14 -10 -23 0 -14 -10 -17 -50 -18 -60 -1 -101 -33 -131 -102
-23 -53 -24 -85 -4 -102 21 -17 19 -30 -5 -30 -13 0 -22 9 -26 27 -8 29 11
115 33 153 15 26 68 66 116 87 35 16 36 43 1 43 -14 0 -34 5 -45 11 -11 5 -57
17 -102 24 -45 8 -93 19 -107 24 -14 5 -59 17 -100 26 -41 10 -79 21 -85 25
-5 4 -21 8 -35 8 -28 0 -116 37 -125 53 -14 22 4 41 33 35 15 -4 43 -11 62
-15z m1288 -73 c-5 -15 -68 -24 -68 -9 0 9 21 16 58 20 8 0 12 -5 10 -11z
m-353 -38 c4 -6 -5 -10 -19 -10 -14 0 -26 5 -26 10 0 6 9 10 19 10 11 0 23 -4
26 -10z m98 -37 c-7 -2 -19 -2 -25 0 -7 3 -2 5 12 5 14 0 19 -2 13 -5z m-133
-32 c0 -11 -29 -23 -41 -16 -5 3 -18 1 -29 -5 -21 -11 -77 -2 -63 11 7 7 40
12 111 17 12 1 22 -2 22 -7z m-1200 -35 c0 -8 8 -13 18 -12 13 1 17 -8 19 -39
1 -22 0 -34 -3 -27 -9 21 -24 13 -24 -13 0 -17 -4 -23 -14 -19 -9 4 -20 -5
-30 -23 -16 -33 -44 -59 -52 -50 -3 3 2 19 11 36 9 18 13 36 10 41 -3 6 -1 10
4 10 6 0 11 10 11 23 -1 22 -1 22 -17 2 l-16 -20 7 20 c4 11 10 33 13 48 4 18
11 26 19 23 7 -3 16 -1 19 4 9 15 25 12 25 -4z m345 -16 c3 -5 1 -10 -4 -10
-6 0 -11 -7 -11 -15 0 -8 -8 -15 -18 -15 -43 0 -55 -44 -17 -62 29 -13 33 -28
8 -28 -24 1 -53 24 -53 42 0 8 -4 18 -9 24 -5 5 -12 19 -15 31 -5 17 -1 23 21
31 37 14 90 15 98 2z m-1885 -100 c0 -5 -5 -10 -11 -10 -5 0 -7 5 -4 10 3 6 8
10 11 10 2 0 4 -4 4 -10z m1577 -12 c-3 -8 -6 -5 -6 6 -1 11 2 17 5 13 3 -3 4
-12 1 -19z m-1557 -28 c16 -10 12 -12 -37 -23 -27 -6 -30 8 -5 22 21 13 24 13
42 1z m3363 -36 c37 -44 30 -44 -13 1 -19 19 -30 35 -24 34 5 0 22 -16 37 -35z
m-2683 9 c0 -5 -4 -15 -10 -23 -11 -18 -25 -7 -17 15 6 15 27 21 27 8z m724
-35 c-8 -20 -52 -49 -59 -39 -3 5 3 12 14 16 11 3 22 12 25 20 3 8 10 15 15
15 6 0 8 -6 5 -12z m-491 -25 c4 -3 7 -10 6 -16 -3 -27 2 -35 26 -41 49 -12
20 -38 -47 -42 -33 -2 -37 0 -35 19 1 14 -4 22 -13 22 -8 0 -21 4 -27 8 -7 5
-17 5 -23 2 -23 -14 -8 11 23 36 30 26 58 30 90 12z m3648 -23 c25 -14 24 -37
-1 -45 -25 -8 -40 1 -40 24 0 31 11 36 41 21z m-3418 -7 c9 -8 -42 -63 -59
-63 -7 0 -22 -13 -33 -29 -11 -15 -33 -31 -48 -34 -16 -4 -38 -9 -50 -13 -15
-4 -23 -2 -23 6 0 18 111 122 140 131 33 10 65 11 73 2z m3467 -43 c0 -5 11
-10 25 -10 14 0 25 -3 25 -7 -1 -21 -17 -31 -43 -26 -20 4 -27 11 -27 29 0 13
5 24 10 24 6 0 10 -4 10 -10z m-1365 -20 c3 -5 1 -10 -4 -10 -6 0 -11 5 -11
10 0 6 2 10 4 10 3 0 8 -4 11 -10z m1316 -3 c-1 -12 -15 -9 -19 4 -3 6 1 10 8
8 6 -3 11 -8 11 -12z m-1241 -17 c0 -5 -6 -10 -14 -10 -8 0 -18 5 -21 10 -3 6
3 10 14 10 12 0 21 -4 21 -10z m88 -26 c21 -9 49 -22 63 -30 15 -8 46 -24 69
-36 73 -39 23 -31 -63 9 -45 22 -98 47 -117 56 -30 14 -32 17 -12 17 13 0 40
-7 60 -16z m-2884 -21 c-4 -16 -11 -32 -15 -37 -5 -6 -9 -20 -9 -33 0 -13 -4
-23 -8 -23 -5 0 -18 -9 -29 -20 -21 -19 -22 -19 -28 -1 -8 25 2 49 42 99 40
49 56 54 47 15z m-154 -28 c-7 -8 -17 -15 -22 -15 -6 0 -5 7 2 15 7 8 17 15
22 15 6 0 5 -7 -2 -15z m-92 -7 c-6 -16 -55 -34 -65 -25 -9 10 27 36 50 37 11
0 17 -5 15 -12z m4400 -16 c6 -18 -15 -14 -22 4 -4 10 -1 14 6 12 6 -2 14 -10
16 -16z m-2296 -62 c3 -20 0 -30 -9 -30 -8 0 -13 12 -13 30 0 17 4 30 9 30 5
0 11 -13 13 -30z m-137 -81 c6 -8 -37 -59 -51 -59 -11 0 -2 31 11 36 8 4 15
12 15 20 0 16 16 19 25 3z m55 -90 c16 -18 30 -36 30 -40 0 -17 -40 -9 -60 11
-12 12 -25 18 -30 15 -5 -3 -11 -1 -15 5 -3 5 1 10 10 10 11 0 15 5 11 15 -10
26 22 16 54 -16z m140 -4 c14 -19 14 -19 -3 -6 -15 12 -20 11 -37 -4 -11 -10
-20 -15 -20 -11 0 6 44 48 45 43 1 -1 7 -11 15 -22z m-1077 -33 c-6 -24 -18
-28 -28 -11 -4 6 1 16 11 24 23 16 25 15 17 -13z m575 -14 c-3 -7 -15 -14 -29
-16 -23 -2 -23 -2 -5 13 24 18 39 20 34 3z m492 -27 c7 -14 4 -17 -15 -16 -28
0 -50 19 -41 33 9 14 45 3 56 -17z m-1112 -12 c-2 -6 -8 -10 -13 -10 -5 0 -11
4 -13 10 -2 6 4 11 13 11 9 0 15 -5 13 -11z m1177 -29 c3 -5 -1 -10 -9 -10 -9
0 -16 5 -16 10 0 6 4 10 9 10 6 0 13 -4 16 -10z m-1215 -26 c0 -8 -5 -12 -10
-9 -6 4 -8 11 -5 16 9 14 15 11 15 -7z m588 -46 c17 -17 15 -28 -7 -28 -22 0
-35 15 -26 30 8 13 18 13 33 -2z m-48 -17 c0 -5 -9 -7 -20 -4 -11 3 -20 7 -20
9 0 2 9 4 20 4 11 0 20 -4 20 -9z m40 -57 c0 -3 -7 -1 -15 6 -8 7 -15 17 -15
22 0 5 7 3 15 -6 8 -8 15 -18 15 -22z m1263 22 c24 -18 21 -27 -8 -23 -29 4
-39 12 -30 26 8 14 16 13 38 -3z m-1293 -51 c0 -14 -6 -21 -21 -21 -19 0 -19
1 -3 13 13 9 14 16 6 26 -7 8 -9 17 -5 21 9 9 23 -14 23 -39z m140 35 c0 -13
-20 -13 -40 0 -12 8 -9 10 13 10 15 0 27 -4 27 -10z m-52 -40 c11 -18 10 -19
-16 -8 -41 18 -49 28 -21 28 13 0 30 -9 37 -20z m1137 0 c11 -13 14 -20 6 -20
-13 0 -41 24 -41 34 0 12 18 5 35 -14z m-405 -10 c0 -5 -4 -10 -10 -10 -5 0
-10 5 -10 10 0 6 5 10 10 10 6 0 10 -4 10 -10z m-776 -26 c24 -9 19 -22 -8
-20 -14 0 -22 6 -19 14 6 14 6 14 27 6z m99 -29 c0 -6 -7 -11 -16 -13 -12 -3
-15 1 -11 13 7 17 25 17 27 0z m2093 -11 c23 -24 32 -54 17 -54 -18 1 -53 40
-53 59 0 27 8 26 36 -5z m-2062 0 c3 -8 2 -12 -4 -9 -6 3 -10 10 -10 16 0 14
7 11 14 -7z m1503 -20 c-3 -3 -12 -4 -19 -1 -8 3 -5 6 6 6 11 1 17 -2 13 -5z
m-1789 -22 c2 -7 -2 -10 -12 -6 -9 3 -16 11 -16 16 0 13 23 5 28 -10z m1157
-2 c3 -5 2 -10 -4 -10 -5 0 -13 5 -16 10 -3 6 -2 10 4 10 5 0 13 -4 16 -10z
m345 -10 c0 -5 5 -10 11 -10 6 0 17 -7 26 -16 9 -8 22 -13 29 -10 22 8 29 -16
9 -31 -20 -14 -67 -18 -79 -6 -4 4 3 15 15 24 l22 17 -31 16 c-35 18 -40 26
-17 26 8 0 15 -4 15 -10z m240 0 c0 -5 -4 -10 -10 -10 -5 0 -10 5 -10 10 0 6
5 10 10 10 6 0 10 -4 10 -10z m-590 -69 c0 -5 19 -12 43 -15 35 -6 39 -9 24
-17 -9 -6 -26 -8 -36 -4 -11 3 -22 1 -26 -5 -3 -5 -19 -10 -35 -10 -15 0 -30
-5 -32 -11 -2 -7 -11 -10 -18 -7 -11 4 -7 9 13 18 15 7 27 17 27 22 0 11 -38
10 -42 -2 -1 -5 -13 -7 -25 -4 -13 4 -20 11 -16 20 3 8 9 11 14 8 5 -3 17 0
26 5 22 13 83 14 83 2z m290 -11 c0 -5 -8 -10 -17 -10 -9 0 -27 -10 -39 -21
-16 -15 -28 -19 -41 -14 -16 8 -15 9 5 13 13 2 32 12 43 23 20 20 49 26 49 9z
m-141 -47 c23 -17 10 -16 -29 4 -31 15 -32 17 -14 30 17 12 19 12 23 -4 2 -10
11 -23 20 -30z m-1043 -4 c14 -16 16 -23 6 -26 -10 -4 -10 -8 -1 -19 9 -11 8
-14 -4 -14 -19 0 -23 5 -32 48 -8 37 4 41 31 11z m359 -9 c20 -11 43 -20 52
-20 9 0 13 -3 10 -6 -9 -9 -117 25 -117 37 0 14 16 11 55 -11z m-663 -2 c-9
-9 -15 -9 -24 0 -9 9 -7 12 12 12 19 0 21 -3 12 -12z m418 -28 c-31 -24 -80
-27 -80 -4 0 12 7 14 31 9 21 -5 29 -4 25 3 -3 6 4 12 16 14 34 5 36 -1 8 -22z
m1060 20 c0 -5 -4 -10 -9 -10 -6 0 -13 5 -16 10 -3 6 1 10 9 10 9 0 16 -4 16
-10z m-1490 -25 c-13 -16 -85 -22 -76 -6 3 5 20 8 37 7 16 -1 32 1 35 6 3 4 8
8 11 8 3 0 0 -7 -7 -15z m770 5 c0 -5 -5 -10 -11 -10 -5 0 -7 5 -4 10 3 6 8
10 11 10 2 0 4 -4 4 -10z m327 -41 c-17 -27 -24 -24 -29 15 -4 33 -3 33 19 19
19 -12 20 -18 10 -34z m-1013 32 c7 -11 -22 -23 -35 -15 -5 3 -7 10 -4 15 8
12 32 12 39 0z m1133 -7 c-3 -3 -12 -4 -19 -1 -8 3 -5 6 6 6 11 1 17 -2 13 -5z
m-1927 -13 c0 -6 -4 -13 -10 -16 -5 -3 -10 1 -10 9 0 9 5 16 10 16 6 0 10 -4
10 -9z m2100 -6 c0 -8 -4 -15 -10 -15 -5 0 -10 7 -10 15 0 8 5 15 10 15 6 0
10 -7 10 -15z m-1475 -15 c3 -5 2 -10 -4 -10 -5 0 -13 5 -16 10 -3 6 -2 10 4
10 5 0 13 -4 16 -10z"/>
<path d="M660 4630 c0 -5 5 -10 10 -10 6 0 10 5 10 10 0 6 -4 10 -10 10 -5 0
-10 -4 -10 -10z"/>
<path d="M750 4570 c-8 -5 -11 -13 -6 -17 5 -4 11 -2 13 5 3 6 9 10 14 6 5 -3
9 0 9 5 0 13 -10 14 -30 1z"/>
<path d="M1287 4481 c-17 -6 -18 -8 -3 -20 18 -15 29 -10 24 12 -2 9 -9 12
-21 8z"/>
<path d="M1330 4426 c0 -9 5 -16 10 -16 6 0 10 4 10 9 0 6 -4 13 -10 16 -5 3
-10 -1 -10 -9z"/>
<path d="M1625 4360 c4 -6 11 -8 16 -5 14 9 11 15 -7 15 -8 0 -12 -5 -9 -10z"/>
<path d="M1640 4313 c0 -18 5 -33 10 -33 13 0 13 30 0 50 -7 11 -10 7 -10 -17z"/>
<path d="M2215 4080 c3 -5 8 -10 11 -10 2 0 4 5 4 10 0 6 -5 10 -11 10 -5 0
-7 -4 -4 -10z"/>
<path d="M2345 4040 c3 -5 8 -10 11 -10 2 0 4 5 4 10 0 6 -5 10 -11 10 -5 0
-7 -4 -4 -10z"/>
<path d="M2165 4020 c-3 -5 3 -10 14 -10 12 0 21 5 21 10 0 6 -6 10 -14 10 -8
0 -18 -4 -21 -10z"/>
<path d="M2230 3990 c0 -5 5 -10 11 -10 5 0 7 5 4 10 -3 6 -8 10 -11 10 -2 0
-4 -4 -4 -10z"/>
<path d="M2327 3983 c3 -7 6 -13 8 -13 2 0 5 6 8 13 3 8 -1 14 -8 14 -7 0 -11
-6 -8 -14z"/>
<path d="M2272 3953 c-12 -2 -20 -9 -17 -14 10 -14 42 -11 49 6 3 8 2 14 -2
14 -4 -1 -17 -4 -30 -6z"/>
<path d="M2222 3914 c9 -9 21 -13 28 -9 14 9 -5 25 -30 25 -12 0 -12 -3 2 -16z"/>
<path d="M2610 3350 c0 -5 4 -10 9 -10 6 0 13 5 16 10 3 6 -1 10 -9 10 -9 0
-16 -4 -16 -10z"/>
<path d="M2540 3340 c-19 -12 -7 -22 21 -18 19 2 20 5 8 15 -9 7 -20 9 -29 3z"/>
<path d="M2495 3329 c-4 -6 -5 -13 -2 -16 7 -7 27 6 27 18 0 12 -17 12 -25 -2z"/>
<path d="M1320 4010 c0 -5 5 -10 10 -10 6 0 10 5 10 10 0 6 -4 10 -10 10 -5 0
-10 -4 -10 -10z"/>
<path d="M1620 3930 c0 -5 5 -10 10 -10 6 0 10 5 10 10 0 6 -4 10 -10 10 -5 0
-10 -4 -10 -10z"/>
<path d="M1405 3900 c3 -5 13 -10 21 -10 8 0 12 5 9 10 -3 6 -13 10 -21 10 -8
0 -12 -4 -9 -10z"/>
<path d="M1520 3890 c0 -5 7 -7 15 -4 8 4 15 8 15 10 0 2 -7 4 -15 4 -8 0 -15
-4 -15 -10z"/>
<path d="M1565 3874 c-17 -13 -18 -16 -5 -24 8 -5 20 -9 25 -9 6 0 4 3 -2 6
-18 7 -16 23 2 23 8 0 15 5 15 10 0 14 -12 12 -35 -6z"/>
<path d="M1330 3860 c0 -15 5 -20 14 -17 11 4 13 1 9 -11 -5 -13 -3 -14 6 -6
10 9 19 9 39 -2 14 -7 30 -10 35 -7 5 3 13 0 18 -8 6 -11 12 -9 27 9 11 12 27
22 36 22 30 0 16 25 -15 27 -23 2 -30 -1 -25 -12 11 -31 -68 -26 -94 6 -3 4
-15 9 -27 13 -19 6 -23 4 -23 -14z"/>
<path d="M520 3915 c0 -9 5 -15 11 -13 6 2 11 8 11 13 0 5 -5 11 -11 13 -6 2
-11 -4 -11 -13z"/>
<path d="M230 3665 c7 -8 20 -15 28 -15 13 0 12 3 -4 15 -25 19 -40 19 -24 0z"/>
<path d="M515 2860 c-3 -5 1 -10 9 -10 9 0 16 5 16 10 0 6 -4 10 -9 10 -6 0
-13 -4 -16 -10z"/>
<path d="M1273 1546 c-33 -34 -29 -57 3 -24 15 14 25 31 23 36 -2 6 -14 1 -26
-12z"/>
<path d="M1167 1464 c-19 -18 -33 -24 -49 -20 -13 3 -17 3 -10 0 6 -3 12 -21
12 -41 l0 -34 35 37 c19 20 35 39 35 42 0 3 7 14 17 24 27 30 -9 23 -40 -8z"/>
<path d="M690 1430 c0 -5 17 -10 38 -10 27 0 33 3 22 10 -20 13 -60 13 -60 0z"/>
<path d="M1510 1413 c0 -23 26 -42 48 -37 23 7 31 34 10 34 -7 0 -23 3 -35 6
-13 4 -23 2 -23 -3z"/>
<path d="M1766 1323 c-6 -14 -5 -15 5 -6 7 7 10 15 7 18 -3 3 -9 -2 -12 -12z"/>
<path d="M405 1139 c-4 -6 -4 -13 -1 -16 8 -8 36 5 36 17 0 13 -27 13 -35 -1z"/>
<path d="M858 5108 c-3 -7 -2 -24 2 -38 5 -22 11 -25 46 -23 42 1 133 17 137
24 1 2 11 14 21 27 l19 22 -77 0 c-45 0 -75 -4 -71 -9 10 -17 -11 -21 -31 -6
-24 18 -41 19 -46 3z m42 -15 c0 -5 -5 -15 -10 -23 -8 -12 -10 -11 -10 8 0 12
5 22 10 22 6 0 10 -3 10 -7z"/>
<path d="M3731 5078 c-22 -73 -78 -187 -128 -256 -26 -37 -49 -69 -53 -72 -3
-3 -29 -32 -57 -65 -37 -44 -53 -72 -58 -104 -6 -33 -4 -42 6 -39 7 2 16 15
19 29 4 13 27 54 52 89 52 76 250 363 255 369 2 2 6 1 10 -3 11 -10 -90 -203
-128 -246 -17 -19 -44 -61 -60 -92 -16 -32 -34 -58 -39 -58 -6 0 -10 -13 -10
-29 0 -17 -4 -32 -9 -35 -9 -6 -33 -66 -27 -66 3 0 64 80 214 282 97 130 207
278 235 314 l19 24 -35 0 c-34 0 -91 -23 -102 -41 -4 -5 -13 -9 -22 -9 -14 0
-14 3 1 25 l16 25 -43 0 c-43 0 -44 -1 -56 -42z"/>
<path d="M4136 5104 c-9 -24 2 -35 30 -28 13 3 24 2 24 -4 0 -5 -19 -15 -43
-20 -37 -10 -96 -52 -72 -52 4 0 2 -7 -5 -15 -15 -18 -6 -45 13 -45 8 0 20 7
27 15 7 8 16 15 21 15 16 0 10 -26 -10 -44 -16 -14 -23 -15 -41 -6 -20 11 -21
10 -11 -9 6 -11 11 -24 11 -29 0 -12 -59 -21 -66 -10 -3 5 -10 6 -15 3 -17
-11 -9 -24 19 -27 22 -2 27 -8 28 -30 1 -34 -6 -35 -44 -3 l-29 25 -13 -48
c-7 -26 -17 -52 -21 -57 -4 -6 -10 -28 -12 -49 -3 -26 -11 -42 -25 -50 -18
-10 -19 -13 -6 -31 14 -19 20 -15 120 93 58 61 110 110 115 106 5 -3 9 -26 9
-51 0 -36 -4 -46 -20 -50 -23 -6 -27 -23 -5 -23 8 0 15 -3 15 -6 0 -12 -34
-64 -42 -64 -4 0 -8 -9 -8 -19 0 -11 -10 -28 -22 -38 -13 -10 -24 -29 -26 -43
-1 -13 -9 -28 -17 -33 -8 -4 -15 -14 -15 -22 0 -7 -10 -15 -22 -17 -15 -2 -22
-9 -22 -20 1 -10 -7 -20 -17 -23 -26 -9 -25 -39 1 -32 24 6 25 3 3 -34 -22
-37 -11 -46 25 -20 17 12 40 21 51 21 12 0 21 5 21 11 0 5 5 7 10 4 6 -3 14 4
18 16 6 16 11 19 16 10 10 -15 36 4 36 26 0 7 6 13 14 11 20 -4 100 74 116
112 7 16 19 30 26 30 8 0 14 7 14 15 0 9 6 18 14 21 14 5 76 122 76 142 0 6 7
12 15 16 8 3 15 12 15 21 0 15 37 132 47 148 3 5 10 4 16 -2 7 -7 19 3 39 32
64 92 73 103 109 135 l38 34 -3 -38 c-2 -25 -18 -57 -49 -99 -25 -34 -55 -78
-67 -98 -12 -20 -27 -37 -33 -37 -6 0 -8 -3 -4 -6 7 -7 -49 -122 -90 -188 -14
-22 -37 -61 -52 -87 -52 -94 -119 -171 -168 -194 -20 -10 -66 -45 -102 -79
-172 -160 -209 -179 -355 -180 -98 -1 -110 -3 -120 -21 -13 -24 -37 -44 -52
-45 -6 0 -59 47 -119 105 -102 100 -107 106 -92 123 12 13 17 36 17 73 0 36 7
67 21 94 12 22 23 54 24 73 4 32 3 33 -33 27 -54 -9 -120 -83 -175 -197 -41
-85 -66 -181 -59 -228 1 -8 2 -43 3 -77 2 -54 5 -63 21 -63 46 0 167 -43 236
-85 42 -25 87 -45 99 -45 29 0 137 -41 217 -81 51 -26 202 -89 214 -89 2 0 0
5 -4 11 -8 13 26 4 70 -19 64 -32 407 -335 394 -347 -3 -3 -48 15 -100 40 -52
25 -98 45 -102 45 -4 0 5 -17 19 -37 29 -43 31 -53 10 -53 -8 0 -15 -3 -15 -7
1 -12 55 -69 72 -76 9 -3 30 -30 47 -60 26 -46 31 -63 29 -116 -1 -46 -6 -65
-21 -78 -16 -16 -20 -16 -30 -3 -7 8 -25 22 -40 30 -67 34 -241 219 -223 237
3 3 35 -9 70 -27 66 -33 102 -38 74 -10 -7 8 -31 44 -53 80 -21 36 -40 67 -42
69 -2 3 -27 -7 -57 -22 -73 -37 -129 -43 -220 -23 -42 10 -76 21 -76 25 0 3
25 7 55 7 41 0 60 5 77 21 25 23 129 53 184 53 19 0 34 5 34 10 0 6 -21 10
-48 10 -26 0 -80 9 -120 20 -39 11 -82 20 -95 20 -12 0 -47 9 -77 21 -114 44
-360 90 -360 68 0 -16 161 -148 226 -184 38 -21 82 -49 98 -62 37 -31 235
-148 266 -158 27 -8 102 -56 136 -87 21 -18 62 -45 112 -70 31 -16 28 -26 -10
-31 -26 -4 -24 -5 9 -4 23 1 45 -2 49 -5 10 -10 -63 -70 -125 -103 -50 -27
-56 -33 -51 -55 7 -35 20 -53 58 -79 l33 -23 32 36 32 36 57 -14 c32 -8 60
-11 63 -6 8 12 -7 20 -39 20 -17 0 -39 6 -48 13 -15 12 -15 14 3 25 22 14 75
16 83 3 3 -5 32 -21 63 -36 115 -56 142 -91 113 -146 -8 -15 -7 -21 4 -25 10
-4 14 -14 10 -28 -5 -20 -2 -21 78 -22 47 0 93 -6 106 -13 33 -18 38 -7 13 27
-15 22 -19 38 -15 61 5 21 2 32 -7 36 -18 7 -23 131 -7 163 10 19 8 24 -8 36
-15 12 -17 17 -6 27 6 7 12 22 12 33 1 21 1 21 15 2 13 -17 15 -18 15 -3 0 22
6 21 37 -3 14 -11 37 -20 50 -20 13 0 41 -9 61 -19 20 -10 58 -28 84 -40 26
-11 65 -37 88 -57 l40 -36 0 100 0 101 -35 7 c-23 4 -43 17 -56 35 -23 33 -20
52 17 111 25 39 31 68 15 68 -5 0 -18 -15 -29 -33 l-19 -33 -74 2 c-41 1 -82
3 -91 3 -10 1 -18 7 -18 15 0 16 -22 27 -37 18 -6 -4 -13 -16 -15 -27 -4 -18
-6 -17 -18 8 -7 15 -20 27 -27 27 -11 0 -13 9 -8 36 9 61 69 128 140 159 22 9
48 21 57 26 28 15 74 10 90 -8 27 -32 38 -61 45 -123 3 -33 7 -60 9 -60 1 0
14 4 28 10 25 9 26 12 26 95 0 54 -4 85 -11 85 -7 0 -9 25 -4 78 3 42 8 151
11 241 5 155 4 163 -13 155 -10 -4 -33 -8 -50 -8 -25 -1 -33 -6 -33 -18 0 -22
-18 -24 -26 -3 -4 8 -18 15 -34 15 -16 0 -35 3 -44 6 -20 8 -21 38 -1 54 18
15 45 6 45 -15 0 -8 5 -15 11 -15 5 0 9 10 7 22 -4 28 22 36 29 9 7 -27 9 -27
50 9 18 17 40 30 48 30 12 0 15 14 15 58 0 59 -12 94 -24 73 -4 -6 -15 -11
-26 -11 -11 0 -20 -10 -24 -25 -6 -24 -36 -36 -36 -15 0 6 -9 10 -20 10 -11 0
-20 5 -20 11 0 6 -13 29 -29 53 -16 23 -34 61 -40 84 -6 22 -15 43 -20 46 -4
3 -32 -17 -61 -44 -53 -49 -56 -50 -116 -50 -34 0 -79 7 -99 16 -35 14 -39 14
-47 0 -5 -9 -15 -16 -22 -16 -7 0 -20 -6 -30 -13 -17 -12 -16 -15 15 -46 28
-28 31 -36 21 -52 -7 -10 -12 -32 -12 -49 0 -39 -12 -38 -29 3 -41 95 -64 138
-81 147 -23 12 -35 73 -18 99 9 16 16 17 31 9 11 -5 32 -8 47 -5 19 4 38 -1
63 -19 20 -13 50 -24 66 -24 21 0 31 -5 31 -15 0 -23 62 -19 116 7 33 15 69
48 121 110 78 90 105 105 77 40 -32 -76 -35 -88 -29 -122 8 -42 24 -63 39 -52
6 4 23 13 38 20 26 11 28 10 39 -28 7 -23 18 -40 27 -40 9 0 12 6 8 16 -9 25
4 63 25 69 18 6 19 23 19 476 l0 469 -489 0 c-438 0 -489 -2 -495 -16z m114
-39 c0 -36 -10 -44 -28 -22 -14 17 -4 57 14 57 9 0 14 -12 14 -35z m93 -1 c9
-10 -25 -64 -40 -64 -17 0 -16 16 3 45 17 25 26 30 37 19z m-163 -79 c21 -25
1 -31 -22 -7 -18 18 -19 22 -6 22 8 0 21 -7 28 -15z m70 -45 c0 -11 -4 -20
-10 -20 -5 0 -10 9 -10 20 0 11 5 20 10 20 6 0 10 -9 10 -20z m0 -59 c-14 -28
-31 -36 -40 -20 -9 14 15 38 38 39 9 0 10 -5 2 -19z m117 -43 c-3 -8 -6 -5 -6
6 -1 11 2 17 5 13 3 -3 4 -12 1 -19z m433 -4 c0 -21 4 -24 20 -19 13 4 22 1
26 -9 3 -8 12 -12 20 -9 8 3 14 0 14 -7 0 -8 9 -10 25 -6 14 4 25 2 25 -2 0
-10 41 -53 91 -96 25 -22 30 -30 19 -34 -8 -3 -26 -13 -40 -22 -40 -27 -72
-31 -86 -12 -10 14 -15 15 -25 5 -22 -22 -30 -14 -24 21 l7 34 -52 11 c-67 15
-77 14 -84 -5 -5 -12 -14 -15 -37 -10 -20 4 -41 0 -59 -11 -28 -16 -60 -13
-60 7 0 6 11 15 25 20 16 6 25 17 25 30 0 30 18 60 35 60 8 0 15 5 15 10 0 6
-19 10 -42 10 l-42 0 20 20 c21 21 81 37 147 39 33 1 37 -1 37 -25z m-190
-236 c67 -39 45 -84 -27 -57 -49 19 -65 45 -39 65 25 18 20 18 66 -8z m126 11
c11 -19 -13 -34 -31 -19 -13 11 -13 15 -3 21 18 12 26 11 34 -2z m24 -79 c0
-6 10 -8 24 -4 16 4 25 1 29 -11 5 -11 14 -14 32 -9 14 3 31 2 38 -4 6 -5 29
-15 50 -21 55 -18 47 -35 -13 -27 -50 7 -70 -6 -27 -18 52 -14 81 -6 128 34
26 22 53 40 59 40 18 0 1 -41 -33 -80 -36 -42 -57 -56 -66 -43 -3 6 -24 13
-46 16 -37 6 -92 27 -157 62 -32 16 -32 16 -17 -35 10 -33 9 -41 -15 -78 -14
-23 -24 -42 -21 -42 3 0 -3 -10 -15 -22 -26 -28 -36 -18 -17 19 8 15 18 47 22
70 4 24 11 45 16 49 18 10 9 24 -16 24 -30 0 -34 25 -5 40 11 6 20 20 20 30 0
11 7 20 15 20 8 0 15 -5 15 -10z m-75 -97 c5 -18 3 -22 -9 -17 -9 3 -16 18
-16 32 0 29 14 20 25 -15z m174 -25 c41 -22 49 -32 32 -42 -10 -7 -73 34 -79
52 -5 16 0 15 47 -10z m-522 -53 c3 -9 13 -15 22 -14 28 2 37 -1 59 -21 12
-11 19 -27 16 -35 -7 -17 -34 -21 -34 -5 0 6 -4 10 -10 10 -5 0 -10 -7 -10
-16 0 -11 -5 -14 -16 -10 -17 6 -54 -19 -54 -36 0 -5 8 -20 17 -35 9 -14 18
-34 18 -45 1 -11 9 -25 18 -30 18 -10 24 -48 7 -48 -5 0 -13 8 -19 18 -5 9
-12 16 -15 15 -13 -6 -27 -3 -22 5 5 9 -3 10 -86 16 -32 3 -62 7 -67 10 -15 9
6 69 30 87 15 11 22 29 24 58 2 43 24 70 57 71 9 0 20 5 23 10 9 15 35 12 42
-5z m608 -320 c39 -51 21 -62 -26 -14 -45 46 -46 49 -20 49 11 0 32 -16 46
-35z m-267 -32 c-40 -91 -8 -237 59 -273 44 -23 64 -41 58 -50 -3 -4 6 -15 20
-24 28 -18 32 -41 11 -62 -8 -7 -12 -23 -9 -34 7 -27 -5 -25 -32 6 l-22 26 -7
-26 c-6 -25 -9 -26 -83 -26 -56 0 -101 8 -165 28 -48 15 -88 31 -88 36 0 5 -7
14 -16 21 -11 7 -14 19 -10 32 10 33 106 71 106 43 0 -5 5 -10 12 -10 6 0 31
-9 55 -21 35 -17 54 -20 96 -15 29 4 63 13 77 21 l25 14 -32 1 c-27 0 -33 4
-33 22 0 20 -1 20 -18 5 -25 -23 -32 -21 -32 9 0 19 4 25 14 21 11 -4 13 -1 9
11 -14 36 -63 45 -63 12 0 -11 -4 -20 -10 -20 -5 0 -10 16 -10 35 0 19 5 35
10 35 6 0 10 -5 10 -11 0 -5 4 -8 9 -5 5 3 9 22 9 41 0 57 24 168 40 188 27
31 31 18 10 -30z m278 -48 c8 -19 31 -19 68 0 35 18 57 6 36 -20 -10 -12 -29
-16 -74 -14 -44 1 -73 -4 -106 -19 -24 -11 -46 -19 -49 -17 -4 5 53 55 83 72
28 16 36 16 42 -2z m-1160 -22 c28 -13 215 -213 199 -213 -15 0 -53 25 -95 63
-91 81 -180 167 -180 173 0 7 35 -3 76 -23z m481 -89 c-12 -13 -37 6 -37 28
l0 22 22 -21 c12 -13 19 -25 15 -29z m299 -110 c-3 -9 -6 -21 -6 -27 0 -6 -7
-4 -16 5 -18 18 -11 38 13 38 10 0 13 -6 9 -16z m494 -44 c0 -5 -7 -10 -15
-10 -8 0 -15 5 -15 10 0 6 7 10 15 10 8 0 15 -4 15 -10z m-800 -389 c0 -5 3
-18 7 -28 6 -16 5 -16 -10 -4 -19 15 -23 41 -7 41 6 0 10 -4 10 -9z m185 0
c10 -17 -12 -21 -25 -6 -10 12 -10 15 3 15 9 0 18 -4 22 -9z m-120 -72 c12
-19 -5 -23 -22 -6 -16 16 -16 17 -1 17 9 0 20 -5 23 -11z m304 -86 c29 -24 51
-112 41 -160 -5 -20 -6 -41 -3 -46 3 -6 1 -7 -5 -3 -21 13 -35 -5 -18 -23 14
-15 12 -18 -15 -30 -17 -7 -34 -23 -39 -36 -11 -28 -36 -39 -44 -19 -3 8 -2
13 3 10 5 -4 4 5 -2 19 -9 18 -17 23 -34 18 -24 -5 -32 11 -10 21 9 5 9 7 -1
12 -6 3 -10 10 -6 15 3 5 -2 9 -10 9 -9 0 -16 -4 -16 -10 0 -5 -10 -10 -22
-10 -20 1 -21 2 -6 10 10 6 14 18 11 30 -6 22 -23 26 -40 9 -7 -7 -15 -5 -27
7 -20 20 -14 65 15 106 10 15 19 30 19 33 0 3 12 17 28 30 23 20 38 24 93 25
49 0 72 -5 88 -17z m411 -206 c11 -5 9 -6 -4 -4 -11 1 -21 9 -23 17 -3 10 -2
11 4 4 4 -6 15 -14 23 -17z m-570 -67 c0 -5 -4 -10 -10 -10 -5 0 -10 5 -10 10
0 6 5 10 10 10 6 0 10 -4 10 -10z m230 -165 c0 -8 -2 -15 -4 -15 -2 0 -6 7
-10 15 -3 8 -1 15 4 15 6 0 10 -7 10 -15z"/>
<path d="M4560 2976 c0 -7 9 -16 19 -19 17 -4 18 -2 8 14 -14 22 -27 25 -27 5z"/>
<path d="M2850 5023 c-25 -15 -25 -15 9 -9 18 3 40 6 48 6 8 0 11 5 8 10 -8
14 -35 11 -65 -7z"/>
<path d="M238 5023 c-10 -3 -18 -12 -18 -21 0 -11 3 -13 8 -5 4 6 21 11 37 10
17 -1 32 2 35 7 5 10 -34 15 -62 9z"/>
<path d="M310 4990 c0 -5 5 -10 10 -10 6 0 10 5 10 10 0 6 -4 10 -10 10 -5 0
-10 -4 -10 -10z"/>
<path d="M2788 4993 c7 -3 16 -2 19 1 4 3 -2 6 -13 5 -11 0 -14 -3 -6 -6z"/>
<path d="M370 4958 c0 -9 5 -20 11 -23 17 -11 18 -2 3 19 -12 17 -14 17 -14 4z"/>
<path d="M2455 4900 c-22 -23 -25 -30 -12 -30 9 0 20 6 24 13 4 8 16 16 26 20
9 3 17 11 17 17 0 19 -26 10 -55 -20z"/>
<path d="M4035 4901 c-3 -5 -1 -12 5 -16 5 -3 10 1 10 9 0 18 -6 21 -15 7z"/>
<path d="M2783 4883 c-4 -10 -11 -22 -17 -26 -6 -4 3 -5 19 -1 36 8 57 23 49
35 -9 16 -44 10 -51 -8z"/>
<path d="M2526 4864 c-4 -10 -1 -14 6 -12 15 5 23 28 10 28 -5 0 -13 -7 -16
-16z"/>
<path d="M3195 4837 c-4 -10 -5 -21 -1 -24 10 -10 18 4 13 24 -4 17 -4 17 -12
0z"/>
<path d="M3120 4805 c-25 -27 -46 -32 -52 -14 -2 7 -20 -10 -40 -37 -41 -56
-40 -71 3 -48 29 14 32 14 51 -3 20 -18 20 -17 16 22 -3 37 -1 40 25 43 31 4
43 23 30 47 -8 13 -12 12 -33 -10z"/>
<path d="M2340 4800 c-8 -5 -10 -10 -5 -10 6 0 17 5 25 10 8 5 11 10 5 10 -5
0 -17 -5 -25 -10z"/>
<path d="M2665 4801 c-10 -17 9 -20 30 -5 18 14 18 14 -2 14 -12 0 -24 -4 -28
-9z"/>
<path d="M2762 4791 c-11 -6 -11 -17 -1 -55 10 -42 16 -49 52 -63 38 -16 39
-17 19 -26 -25 -11 -27 -25 -9 -48 14 -17 165 -41 209 -32 16 3 36 -1 50 -11
26 -18 38 -20 38 -6 0 6 -6 10 -13 10 -8 0 -22 9 -32 20 -10 11 -31 20 -47 20
-18 0 -31 6 -34 18 -3 9 -14 35 -24 57 -28 62 -31 77 -19 91 16 19 3 18 -20
-2 -11 -10 -17 -23 -14 -30 2 -7 -5 -15 -17 -19 -23 -7 -44 4 -22 12 23 9 12
21 -25 28 -21 4 -47 15 -58 25 -12 12 -25 16 -33 11z"/>
<path d="M3280 4723 c0 -5 6 -18 14 -29 17 -22 35 -11 20 13 -12 19 -34 29
-34 16z"/>
<path d="M4417 4723 c-13 -13 -7 -32 8 -27 8 4 15 12 15 20 0 15 -12 19 -23 7z"/>
<path d="M2670 4700 c0 -5 5 -10 11 -10 5 0 7 5 4 10 -3 6 -8 10 -11 10 -2 0
-4 -4 -4 -10z"/>
<path d="M3113 4662 c15 -9 27 -22 27 -29 0 -7 7 -10 15 -7 23 9 18 23 -10 30
-14 3 -25 10 -25 15 0 5 -8 9 -17 9 -13 0 -11 -5 10 -18z"/>
<path d="M3360 4670 c0 -5 5 -10 11 -10 5 0 7 5 4 10 -3 6 -8 10 -11 10 -2 0
-4 -4 -4 -10z"/>
<path d="M3834 4566 c-14 -11 -16 -17 -7 -26 9 -10 17 -8 37 6 14 11 26 22 26
27 0 12 -35 8 -56 -7z"/>
<path d="M2792 4546 c-1 -17 5 -27 19 -31 11 -4 23 -4 26 -1 4 3 -1 6 -10 6
-11 0 -17 8 -17 25 0 32 -15 33 -18 1z"/>
<path d="M2897 4529 c8 -8 16 -8 30 0 16 9 14 10 -11 11 -22 0 -27 -3 -19 -11z"/>
<path d="M2850 4519 c0 -5 5 -7 10 -4 6 3 10 8 10 11 0 2 -4 4 -10 4 -5 0 -10
-5 -10 -11z"/>
<path d="M3778 4482 c-10 -15 -23 -35 -30 -44 -16 -23 2 -43 30 -34 53 17 99
86 57 86 -8 0 -15 5 -15 10 0 20 -25 9 -42 -18z"/>
<path d="M3135 4450 c-3 -5 -17 -10 -30 -10 -27 0 -110 -34 -119 -49 -4 -5
-13 -8 -21 -5 -12 5 -12 1 -2 -20 7 -14 19 -26 27 -26 8 0 0 -8 -18 -17 -27
-13 -32 -21 -30 -42 3 -25 6 -26 53 -23 38 2 56 9 73 28 13 13 29 24 37 24 11
0 15 11 15 38 0 31 6 43 30 60 17 13 30 29 30 37 0 17 -35 20 -45 5z"/>
<path d="M2847 4364 c-15 -8 -25 -19 -22 -24 8 -13 45 -13 45 0 0 6 14 10 30
10 17 0 30 5 30 10 0 6 -3 10 -7 11 -5 0 -17 2 -28 4 -11 2 -33 -3 -48 -11z"/>
<path d="M2862 4248 c3 -7 15 -15 28 -18 34 -8 34 -22 1 -45 -35 -23 -33 -33
8 -27 43 6 52 49 16 79 -28 25 -59 31 -53 11z"/>
<path d="M3069 4235 c-1 -6 -1 -13 -1 -16 1 -3 -10 -4 -24 -1 -15 3 -37 -4
-59 -19 -53 -36 -45 -53 11 -24 16 8 39 15 50 15 29 0 51 27 36 42 -7 7 -13 8
-13 3z"/>
<path d="M4462 4163 c-36 -18 -40 -46 -7 -51 13 -2 24 5 30 20 6 14 22 25 40
28 30 6 30 6 5 13 -32 9 -30 9 -68 -10z"/>
<path d="M2928 4133 c7 -3 16 -2 19 1 4 3 -2 6 -13 5 -11 0 -14 -3 -6 -6z"/>
<path d="M2955 4072 c-25 -25 44 -66 94 -56 30 6 59 30 49 40 -3 3 -15 6 -27
7 -11 1 -21 4 -21 7 0 7 -88 9 -95 2z"/>
<path d="M0 3870 c0 -5 5 -10 11 -10 5 0 7 5 4 10 -3 6 -8 10 -11 10 -2 0 -4
-4 -4 -10z"/>
<path d="M3231 3768 c0 -7 4 -22 8 -33 8 -19 8 -19 19 1 8 16 8 24 0 32 -16
16 -28 15 -27 0z"/>
<path d="M3161 3644 c0 -11 3 -14 6 -6 3 7 2 16 -1 19 -3 4 -6 -2 -5 -13z"/>
<path d="M4033 3586 c15 -15 36 -26 45 -26 15 0 15 2 2 11 -8 5 -28 17 -45 25
l-30 15 28 -25z"/>
<path d="M4133 3399 c11 -7 23 -7 35 0 14 9 11 10 -18 10 -29 0 -32 -1 -17
-10z"/>
<path d="M4216 3182 c-7 -12 22 -38 31 -28 4 3 0 14 -9 22 -9 10 -18 12 -22 6z"/>
<path d="M5015 3180 c3 -5 8 -10 11 -10 2 0 4 5 4 10 0 6 -5 10 -11 10 -5 0
-7 -4 -4 -10z"/>
<path d="M3930 2894 c0 -8 5 -12 10 -9 6 4 8 11 5 16 -9 14 -15 11 -15 -7z"/>
<path d="M3272 2823 c-41 -32 -57 -50 -49 -55 8 -5 7 -8 -5 -8 -11 0 -18 -8
-18 -19 0 -35 18 -32 47 5 35 47 61 73 98 101 26 19 28 22 10 22 -12 1 -49
-20 -83 -46z"/>
<path d="M4120 2705 c0 -4 11 -21 25 -39 14 -18 25 -40 25 -49 0 -9 5 -19 10
-22 6 -4 10 13 10 44 0 27 -3 52 -7 54 -16 8 -63 17 -63 12z"/>
<path d="M4446 2672 c-6 -10 33 -46 42 -37 8 7 -10 37 -25 42 -6 2 -14 0 -17
-5z"/>
<path d="M3088 2602 c-15 -9 -30 -23 -33 -31 -11 -27 6 -24 37 7 36 38 34 48
-4 24z"/>
<path d="M5097 2592 c-10 -10 -17 -22 -17 -26 0 -15 -46 -68 -76 -87 -41 -25
-95 -24 -145 2 -57 29 -46 12 40 -62 40 -35 91 -90 113 -122 44 -64 83 -91 99
-66 8 13 14 379 6 379 -2 0 -11 -8 -20 -18z"/>
<path d="M3541 2568 c33 -34 53 -41 43 -14 -4 11 -25 25 -68 45 -5 2 6 -12 25
-31z"/>
<path d="M4850 2559 c0 -4 9 -9 20 -12 12 -3 20 0 20 7 0 6 -9 12 -20 12 -11
0 -20 -3 -20 -7z"/>
<path d="M3860 2469 c0 -5 5 -7 10 -4 6 3 10 8 10 11 0 2 -4 4 -10 4 -5 0 -10
-5 -10 -11z"/>
<path d="M3086 2158 c4 -13 8 -30 8 -39 0 -10 6 -15 14 -11 8 2 24 -7 37 -22
22 -26 45 -34 45 -17 0 5 -3 11 -7 14 -5 2 -3 3 3 1 12 -3 34 15 34 28 0 4 -6
5 -13 2 -8 -3 -20 2 -27 11 -7 8 -21 15 -30 15 -29 0 -50 11 -50 26 0 8 -5 14
-11 14 -6 0 -8 -9 -3 -22z"/>
<path d="M3195 2170 c3 -5 8 -10 11 -10 2 0 4 5 4 10 0 6 -5 10 -11 10 -5 0
-7 -4 -4 -10z"/>
<path d="M3265 2100 c3 -5 8 -10 11 -10 2 0 4 5 4 10 0 6 -5 10 -11 10 -5 0
-7 -4 -4 -10z"/>
<path d="M3210 2040 c-19 -11 0 -34 23 -28 13 2 13 6 3 20 -8 11 -17 14 -26 8z"/>
<path d="M5100 2016 c0 -8 5 -18 10 -21 6 -3 10 3 10 14 0 12 -4 21 -10 21 -5
0 -10 -6 -10 -14z"/>
<path d="M4910 1906 c0 -42 32 -60 58 -34 17 17 15 23 -13 36 -34 16 -45 15
-45 -2z"/>
<path d="M4997 1873 c-12 -11 14 -33 39 -33 31 0 31 14 -1 28 -30 14 -30 14
-38 5z"/>
<path d="M5060 1823 c0 -5 5 -14 12 -21 9 -9 9 -12 0 -12 -7 0 -12 5 -12 10 0
6 -7 10 -16 10 -25 0 -10 -25 18 -28 21 -3 58 22 47 32 -11 9 -49 16 -49 9z"/>
<path d="M4775 1678 c4 -12 14 -34 23 -48 9 -14 32 -56 52 -93 76 -148 86
-166 104 -186 15 -16 22 -18 36 -8 10 6 21 19 23 29 5 19 -38 93 -68 118 -17
14 -18 13 -13 -18 3 -20 0 -32 -7 -32 -7 0 -11 19 -12 48 -1 57 -25 109 -56
122 -12 5 -18 9 -14 9 13 1 -32 60 -55 72 -18 10 -19 8 -13 -13z"/>
<path d="M4994 1666 c-7 -19 3 -36 20 -36 8 0 19 -7 26 -15 10 -13 9 -15 -9
-15 -21 0 -21 -1 -6 -30 14 -28 17 -29 31 -15 9 8 20 13 24 10 10 -6 2 -37
-12 -46 -5 -3 3 -39 19 -79 l28 -72 3 47 c2 26 -2 53 -9 61 -8 10 -8 14 0 14
7 0 11 22 11 61 0 37 -4 58 -10 54 -5 -3 -10 -1 -10 4 0 6 5 11 10 11 6 0 10
9 10 20 0 13 -7 20 -20 20 -11 0 -20 3 -20 8 0 4 -18 8 -40 10 -28 2 -42 -2
-46 -12z"/>
<path d="M4610 1320 c0 -13 5 -20 13 -17 6 2 12 10 12 17 0 7 -6 15 -12 18 -8
2 -13 -5 -13 -18z"/>
<path d="M4597 1266 c-9 -7 -17 -17 -17 -21 0 -4 6 -3 13 3 6 6 15 11 20 11 4
1 7 4 8 7 2 12 -7 12 -24 0z"/>
<path d="M4265 1230 c-6 -10 42 -46 51 -37 3 3 1 15 -6 26 -11 22 -35 28 -45
11z"/>
<path d="M4440 1181 c0 -6 5 -13 10 -16 6 -3 10 1 10 9 0 9 -4 16 -10 16 -5 0
-10 -4 -10 -9z"/>
<path d="M2280 1145 c1 -26 2 -28 11 -12 8 14 8 22 0 30 -8 8 -11 3 -11 -18z"/>
<path d="M4378 1133 c7 -3 16 -2 19 1 4 3 -2 6 -13 5 -11 0 -14 -3 -6 -6z"/>
<path d="M2441 1031 c-9 -17 -9 -21 2 -21 7 0 23 -11 35 -25 25 -28 39 -31 65
-11 16 12 15 14 -15 26 -18 7 -43 22 -55 33 -21 19 -21 19 -32 -2z"/>
<path d="M0 1030 c0 -5 5 -10 11 -10 5 0 7 5 4 10 -3 6 -8 10 -11 10 -2 0 -4
-4 -4 -10z"/>
<path d="M0 960 c0 -19 1 -19 20 -3 11 10 20 19 20 20 0 2 -9 3 -20 3 -13 0
-20 -7 -20 -20z"/>
<path d="M2415 970 c-3 -5 -1 -10 4 -10 6 0 11 5 11 10 0 6 -2 10 -4 10 -3 0
-8 -4 -11 -10z"/>
<path d="M2155 960 c-3 -5 1 -10 10 -10 9 0 13 5 10 10 -3 6 -8 10 -10 10 -2
0 -7 -4 -10 -10z"/>
<path d="M52 935 c-17 -14 -35 -25 -41 -25 -6 0 -11 -12 -11 -26 0 -17 4 -24
13 -21 79 31 96 40 91 48 -3 5 2 9 10 9 9 0 16 9 16 20 0 29 -41 26 -78 -5z"/>
<path d="M2336 945 c-3 -8 -12 -15 -21 -15 -8 0 -15 -7 -15 -15 0 -9 -7 -30
-16 -47 -27 -51 -3 -53 64 -3 34 25 62 48 62 52 -1 30 -64 53 -74 28z"/>
<path d="M2187 903 c-10 -9 -9 -23 2 -23 5 0 11 7 15 15 5 15 -5 20 -17 8z"/>
<path d="M140 855 c-8 -9 -8 -15 -2 -15 12 0 26 19 19 26 -2 2 -10 -2 -17 -11z"/>
<path d="M37 849 c-9 -5 -21 -7 -27 -4 -6 4 -9 -53 -9 -149 l-1 -155 48 -16
c26 -9 54 -20 62 -24 8 -4 42 -15 75 -25 33 -11 69 -22 80 -27 11 -4 43 -15
70 -24 70 -24 148 -63 227 -113 76 -48 124 -56 112 -19 -9 28 -53 87 -66 87
-6 0 -8 6 -5 14 8 19 -15 66 -31 66 -7 0 -15 7 -19 16 -3 9 -13 14 -24 11 -21
-6 -25 3 -8 20 14 14 -21 77 -48 87 -9 4 -13 9 -9 13 8 8 -34 53 -50 53 -6 0
-17 -7 -24 -15 -7 -8 -19 -15 -27 -15 -13 0 -13 3 1 25 20 30 20 35 1 35 -8 0
-15 -7 -15 -15 0 -8 -7 -15 -15 -15 -21 0 -19 12 5 33 27 23 25 45 -4 53 -31
7 -106 -40 -106 -67 0 -11 -5 -19 -10 -19 -10 0 -7 41 5 60 3 5 8 19 10 31 4
18 1 20 -21 15 l-25 -7 20 23 c15 15 18 24 9 29 -8 5 -6 12 6 24 9 10 15 20
12 22 -13 14 -59 -12 -106 -58 -42 -41 -54 -48 -65 -39 -19 16 -10 31 13 23
14 -6 15 -4 5 8 -10 12 -9 21 2 42 13 25 13 27 -8 27 -12 0 -30 -5 -40 -11z
m158 -179 c-3 -5 -10 -10 -16 -10 -5 0 -9 5 -9 10 0 6 7 10 16 10 8 0 12 -4 9
-10z m-90 -70 c-3 -5 -12 -10 -20 -10 -8 0 -17 5 -20 10 -4 6 5 10 20 10 15 0
24 -4 20 -10z m345 -26 c0 -8 -5 -12 -10 -9 -6 4 -8 11 -5 16 9 14 15 11 15
-7z"/>
<path d="M2010 850 c0 -5 -6 -10 -14 -10 -8 0 -18 -5 -22 -11 -8 -14 8 -30 22
-21 12 8 29 52 20 52 -3 0 -6 -4 -6 -10z"/>
<path d="M3345 850 c3 -5 8 -10 11 -10 2 0 4 5 4 10 0 6 -5 10 -11 10 -5 0 -7
-4 -4 -10z"/>
<path d="M2092 830 c13 -20 28 -27 28 -12 0 10 -22 32 -32 32 -5 0 -3 -9 4
-20z"/>
<path d="M3070 839 c0 -5 5 -7 10 -4 6 3 10 8 10 11 0 2 -4 4 -10 4 -5 0 -10
-5 -10 -11z"/>
<path d="M2933 833 c-15 -5 -18 -33 -4 -33 13 0 33 28 24 33 -4 2 -14 2 -20 0z"/>
<path d="M2960 795 c-14 -16 -10 -18 14 -9 9 3 16 10 16 15 0 14 -16 11 -30
-6z"/>
<path d="M2053 788 c-12 -16 -45 -120 -40 -125 8 -8 37 10 37 22 0 8 8 11 19
8 24 -6 35 32 16 61 -8 11 -14 25 -14 29 1 16 -8 18 -18 5z"/>
<path d="M1913 776 c9 -7 17 -22 17 -33 0 -10 6 -28 14 -38 11 -16 17 -17 29
-7 17 14 27 66 16 83 -5 9 -12 8 -24 -5 -16 -15 -19 -15 -34 -1 -10 8 -22 15
-27 15 -5 0 -1 -7 9 -14z"/>
<path d="M2380 785 c0 -8 74 -55 87 -55 25 0 12 18 -27 39 -39 20 -60 26 -60
16z"/>
<path d="M2305 770 c-4 -6 7 -10 25 -10 18 0 29 4 25 10 -3 6 -15 10 -25 10
-10 0 -22 -4 -25 -10z"/>
<path d="M2830 750 c0 -5 5 -10 10 -10 6 0 10 5 10 10 0 6 -4 10 -10 10 -5 0
-10 -4 -10 -10z"/>
<path d="M910 721 c0 -5 7 -12 16 -15 14 -5 15 -4 4 9 -14 17 -20 19 -20 6z"/>
<path d="M2480 710 c0 -5 -9 -10 -20 -10 -25 0 -25 -2 5 -50 28 -44 44 -49 68
-22 18 20 23 82 7 82 -5 0 -10 -5 -10 -12 0 -6 -7 -4 -18 5 -21 19 -32 22 -32
7z"/>
<path d="M3240 698 c0 -6 -8 -20 -17 -30 -16 -18 -16 -18 3 -12 10 4 27 12 36
19 15 10 15 12 -3 23 -14 9 -19 9 -19 0z"/>
<path d="M3418 703 c7 -3 16 -2 19 1 4 3 -2 6 -13 5 -11 0 -14 -3 -6 -6z"/>
<path d="M3580 700 c0 -9 39 -25 45 -18 2 2 -7 8 -21 15 -13 6 -24 7 -24 3z"/>
<path d="M3700 684 c0 -4 8 -13 18 -20 14 -11 14 -15 3 -23 -9 -6 -10 -11 -2
-15 6 -4 11 -2 11 4 0 7 7 10 15 6 13 -5 14 -2 4 17 -16 29 -49 50 -49 31z"/>
<path d="M3500 649 c0 -5 5 -7 10 -4 6 3 10 8 10 11 0 2 -4 4 -10 4 -5 0 -10
-5 -10 -11z"/>
<path d="M4310 606 c0 -9 5 -16 10 -16 6 0 10 4 10 9 0 6 -4 13 -10 16 -5 3
-10 -1 -10 -9z"/>
<path d="M3040 530 c0 -12 8 -12 35 0 18 8 17 9 -7 9 -16 1 -28 -3 -28 -9z"/>
<path d="M3447 515 c17 -23 33 -32 33 -19 0 16 -23 44 -36 44 -13 0 -12 -4 3
-25z"/>
<path d="M3763 518 c1 -12 11 -32 22 -45 11 -12 28 -32 38 -43 15 -17 20 -18
38 -8 17 11 22 10 35 -6 14 -19 14 -19 14 2 0 12 -9 27 -20 34 -11 7 -20 19
-20 27 0 10 -9 12 -35 8 -20 -3 -37 -1 -41 5 -4 7 -2 8 5 4 6 -4 19 -2 27 5
13 11 11 14 -17 26 -42 18 -48 17 -46 -9z"/>
<path d="M4400 525 c0 -10 7 -15 18 -13 21 4 19 22 -2 26 -10 2 -16 -3 -16
-13z"/>
<path d="M2903 508 c21 -7 32 -7 40 1 8 8 0 11 -28 10 -40 -1 -40 -1 -12 -11z"/>
<path d="M1191 497 c-16 -20 -47 -22 -55 -4 -3 6 -4 1 -3 -13 2 -20 8 -25 29
-25 15 -1 35 -9 46 -18 10 -9 24 -17 31 -17 25 0 97 58 85 69 -2 2 -15 -4 -28
-13 -14 -9 -39 -16 -55 -16 -25 0 -30 4 -33 27 -3 24 -4 25 -17 10z"/>
<path d="M3192 495 c-15 -8 -19 -14 -10 -17 16 -6 60 16 51 25 -8 9 -13 8 -41
-8z"/>
<path d="M3350 500 c0 -5 5 -10 11 -10 5 0 7 5 4 10 -3 6 -8 10 -11 10 -2 0
-4 -4 -4 -10z"/>
<path d="M2998 493 c7 -3 16 -2 19 1 4 3 -2 6 -13 5 -11 0 -14 -3 -6 -6z"/>
<path d="M0 246 l0 -246 161 0 c134 0 160 2 150 13 -6 8 -8 16 -5 20 3 3 1 15
-6 26 -11 21 -10 21 29 5 77 -31 78 -12 1 46 -40 30 -89 71 -109 91 -21 20
-49 39 -63 42 -15 4 -33 19 -41 35 -19 36 -66 129 -86 170 -9 19 -19 36 -23
38 -5 3 -8 -105 -8 -240z"/>
<path d="M3120 480 c0 -5 5 -10 10 -10 6 0 10 5 10 10 0 6 -4 10 -10 10 -5 0
-10 -4 -10 -10z"/>
<path d="M3246 481 c-4 -5 -2 -12 3 -15 5 -4 12 -2 15 3 4 5 2 12 -3 15 -5 4
-12 2 -15 -3z"/>
<path d="M3310 480 c0 -5 5 -10 10 -10 6 0 10 5 10 10 0 6 -4 10 -10 10 -5 0
-10 -4 -10 -10z"/>
<path d="M3540 480 c0 -5 5 -10 10 -10 6 0 10 5 10 10 0 6 -4 10 -10 10 -5 0
-10 -4 -10 -10z"/>
<path d="M4805 469 c-11 -17 1 -21 15 -4 8 9 8 15 2 15 -6 0 -14 -5 -17 -11z"/>
<path d="M3355 460 c3 -5 10 -10 16 -10 5 0 9 5 9 10 0 6 -7 10 -16 10 -8 0
-12 -4 -9 -10z"/>
<path d="M3630 450 c0 -5 5 -10 11 -10 5 0 7 5 4 10 -3 6 -8 10 -11 10 -2 0
-4 -4 -4 -10z"/>
<path d="M4355 450 c-3 -5 -1 -10 4 -10 6 0 11 5 11 10 0 6 -2 10 -4 10 -3 0
-8 -4 -11 -10z"/>
<path d="M2571 434 c0 -11 3 -14 6 -6 3 7 2 16 -1 19 -3 4 -6 -2 -5 -13z"/>
<path d="M3390 440 c-8 -5 -10 -10 -5 -10 6 0 17 5 25 10 8 5 11 10 5 10 -5 0
-17 -5 -25 -10z"/>
<path d="M3608 413 c7 -3 16 -2 19 1 4 3 -2 6 -13 5 -11 0 -14 -3 -6 -6z"/>
<path d="M5025 409 c-11 -17 1 -21 15 -4 8 9 8 15 2 15 -6 0 -14 -5 -17 -11z"/>
<path d="M3630 380 c0 -5 5 -10 10 -10 6 0 10 5 10 10 0 6 -4 10 -10 10 -5 0
-10 -4 -10 -10z"/>
<path d="M3677 363 c6 -15 29 -18 37 -4 3 5 -5 11 -18 13 -17 4 -23 1 -19 -9z"/>
<path d="M740 355 c0 -8 7 -15 15 -15 8 0 15 7 15 15 0 8 -7 15 -15 15 -8 0
-15 -7 -15 -15z"/>
<path d="M1280 319 c0 -29 -21 -79 -33 -79 -5 0 -34 -22 -65 -50 -60 -54 -82
-62 -82 -30 0 17 -5 19 -44 14 -39 -6 -44 -4 -49 16 -3 12 -11 20 -19 18 -19
-7 -23 -38 -4 -38 8 0 27 -11 41 -24 l26 -25 -21 -11 c-12 -6 -28 -9 -36 -6
-8 3 -14 1 -14 -3 0 -17 25 -19 59 -5 43 18 41 18 41 -10 0 -14 -10 -30 -25
-40 -29 -19 -53 -11 -92 31 -19 19 -20 25 -8 29 8 4 15 15 15 26 0 16 -3 18
-13 9 -17 -14 -27 -4 -27 25 0 28 -19 42 -31 23 -5 -8 -9 -28 -9 -46 0 -47
-17 -49 -37 -6 -16 37 -17 37 -20 11 -6 -37 -28 -54 -49 -37 -14 12 -14 14 5
21 12 4 21 16 21 27 0 11 4 22 9 25 4 3 11 24 15 47 4 22 13 48 21 56 8 8 15
22 15 31 0 26 -27 -17 -46 -74 -20 -61 -39 -83 -56 -66 -36 36 -38 -17 -3 -79
14 -24 30 -56 36 -71 l11 -28 148 0 c140 0 149 1 155 20 3 11 4 29 0 40 -5 15
12 37 77 102 83 82 116 139 97 170 -6 9 -9 5 -9 -13z"/>
<path d="M3640 329 c0 -5 5 -7 10 -4 6 3 10 8 10 11 0 2 -4 4 -10 4 -5 0 -10
-5 -10 -11z"/>
<path d="M3187 311 c3 -12 9 -21 14 -21 14 0 11 16 -5 29 -12 10 -13 8 -9 -8z"/>
<path d="M960 309 c0 -5 5 -7 10 -4 6 3 10 8 10 11 0 2 -4 4 -10 4 -5 0 -10
-5 -10 -11z"/>
<path d="M1815 301 c-2 -5 23 -25 57 -46 52 -32 62 -36 69 -22 6 9 17 13 29
10 15 -4 20 0 20 14 0 15 -11 23 -42 33 -52 16 -126 22 -133 11z"/>
<path d="M893 282 c-13 -2 -23 -10 -23 -19 0 -12 7 -14 37 -8 42 8 77 24 70
32 -3 2 -14 0 -25 -6 -10 -5 -23 -7 -28 -3 -5 5 -19 6 -31 4z"/>
<path d="M3375 280 c-3 -5 -1 -10 4 -10 6 0 11 5 11 10 0 6 -2 10 -4 10 -3 0
-8 -4 -11 -10z"/>
<path d="M1812 232 c31 -20 62 -47 68 -60 5 -13 14 -21 19 -17 16 9 -19 64
-57 90 -20 14 -48 25 -62 25 -21 0 -16 -6 32 -38z"/>
<path d="M4830 256 c0 -11 -10 -13 -46 -10 -42 5 -45 4 -35 -14 5 -10 16 -24
23 -30 18 -14 123 -1 123 16 0 6 -4 12 -8 11 -5 0 -17 9 -26 20 -21 25 -31 27
-31 7z"/>
<path d="M5035 257 c-4 -10 -5 -21 -1 -24 10 -10 18 4 13 24 -4 17 -4 17 -12
0z"/>
<path d="M4983 225 c0 -32 -10 -42 -25 -27 -18 18 -28 14 -28 -11 0 -25 17
-47 36 -47 14 0 94 51 94 60 0 3 -14 11 -31 17 -17 7 -28 17 -24 22 3 6 0 11
-8 11 -9 0 -14 -10 -14 -25z"/>
<path d="M1742 213 c-16 -6 32 -54 79 -79 29 -15 30 -14 20 4 -9 17 -78 83
-84 81 -1 0 -8 -3 -15 -6z"/>
<path d="M1680 156 c0 -10 100 -75 104 -67 6 9 -72 71 -91 71 -7 0 -13 -2 -13
-4z"/>
<path d="M4870 135 c-10 -13 -9 -15 9 -15 12 0 21 6 21 15 0 8 -4 15 -9 15 -5
0 -14 -7 -21 -15z"/>
<path d="M5082 122 c6 -22 -16 -46 -52 -57 -12 -4 -31 -16 -41 -26 -10 -10
-27 -19 -36 -20 -39 -2 -63 -6 -70 -12 -3 -4 49 -7 116 -7 l122 0 -3 67 c-3
57 -6 68 -22 71 -15 3 -18 0 -14 -16z m-17 -71 c3 -5 1 -12 -5 -16 -5 -3 -10
1 -10 9 0 18 6 21 15 7z"/>
<path d="M1630 114 c1 -15 29 -48 36 -41 3 3 -3 16 -15 28 -12 13 -21 19 -21
13z"/>
<path d="M4892 103 c-15 -6 -6 -23 14 -23 8 0 14 7 14 15 0 15 -6 17 -28 8z"/>
<path d="M1569 64 c-11 -14 -10 -16 9 -12 13 1 23 7 23 13 1 17 -17 16 -32 -1z"/>
<path d="M4340 67 c0 -8 7 -28 15 -43 l15 -29 0 31 c0 17 -7 37 -15 44 -12 10
-15 10 -15 -3z"/>
<path d="M1250 55 c-8 -9 -8 -15 -2 -15 12 0 26 19 19 26 -2 2 -10 -2 -17 -11z"/>
<path d="M1507 63 c-4 -3 -7 -11 -7 -17 0 -6 5 -5 12 2 6 6 9 14 7 17 -3 3 -9
2 -12 -2z"/>
<path d="M4100 40 c0 -5 5 -10 10 -10 6 0 10 -8 10 -17 1 -16 2 -16 11 1 9 14
8 20 -2 27 -19 12 -29 11 -29 -1z"/>
<path d="M1470 10 c-11 -7 2 -10 44 -10 33 0 56 3 53 6 -11 12 -81 14 -97 4z"/>
</g>
</svg>
